<svg width="37" height="38" viewBox="0 0 37 38" fill="none" xmlns="http://www.w3.org/2000/svg">
<mask id="path-1-inside-1" fill="white">
<path fill-rule="evenodd" clip-rule="evenodd" d="M25.3883 5.89934L26.8829 4.40483C27.6702 3.61748 28.9467 3.61748 29.7341 4.40483L32.5853 7.25605C33.3726 8.0434 33.3726 9.31991 32.5853 10.1073L31.0908 11.6018C30.8892 11.7998 30.8372 12.1046 30.9615 12.3583C31.255 12.9482 31.5064 13.5581 31.7138 14.1836C31.8058 14.4511 32.0585 14.63 32.3415 14.6279L34.46 14.6298C35.5732 14.63 36.4756 15.5324 36.4758 16.6456L36.4753 20.6786C36.4749 21.7915 35.5728 22.6936 34.46 22.694L31.3407 22.6968C31.333 22.6969 31.3252 22.6969 31.3175 22.6968C30.9464 22.6909 30.6503 22.3853 30.6562 22.0142C30.6621 21.6431 30.9677 21.347 31.3388 21.3529L34.4585 21.3496C34.8293 21.3493 35.1297 21.0489 35.13 20.6782L35.131 16.6437C35.1309 16.2726 34.8301 15.9718 34.459 15.9717L32.3377 15.9698C31.4766 15.9716 30.711 15.4223 30.4369 14.606C30.2491 14.0407 30.0218 13.4893 29.7564 12.9561C29.3752 12.1853 29.5299 11.257 30.1404 10.6514L31.6349 9.15686C31.8973 8.89443 31.8973 8.46888 31.6349 8.20645L28.7837 5.35524C28.5212 5.09281 28.0957 5.0928 27.8333 5.35523L26.3387 6.84975C25.7331 7.46062 24.8046 7.61548 24.0335 7.23419C23.5005 6.96902 22.9495 6.74164 22.3846 6.5537C21.5678 6.2801 21.0179 5.51431 21.0198 4.65288L21.0179 2.53158C21.0176 2.16086 20.7172 1.86041 20.3464 1.86012L16.3124 1.85964C15.9414 1.8597 15.6406 2.1605 15.6405 2.53158L15.6381 4.65241C15.6393 5.51324 15.0902 6.27861 14.2743 6.55322C13.709 6.74098 13.1577 6.96843 12.6244 7.23371C11.8535 7.61488 10.9253 7.46026 10.3197 6.84975L8.82514 5.35523C8.56271 5.0928 8.13716 5.0928 7.87473 5.35523L5.02351 8.20645C4.76108 8.46888 4.76108 8.89443 5.02351 9.15686L6.51803 10.6514C7.12872 11.2571 7.28352 12.1855 6.90246 12.9566C6.6373 13.4896 6.40992 14.0406 6.22197 14.6055C5.94891 15.4227 5.18276 15.9729 4.32116 15.9703L2.19985 15.9722C1.82878 15.9723 1.52798 16.2731 1.52792 16.6442L1.52792 20.6777C1.52798 21.0488 1.82878 21.3496 2.19985 21.3496L5.31956 21.351C5.68155 21.3578 5.97315 21.6502 5.97891 22.0123C5.98485 22.3834 5.68874 22.689 5.31766 22.6949L2.19843 22.6921C1.08521 22.6919 0.182796 21.7895 0.182617 20.6763V16.6427C0.18529 15.5308 1.08604 14.6301 2.19795 14.6274L4.31878 14.626C4.60224 14.6286 4.85529 14.4491 4.94653 14.1807C5.15407 13.5557 5.40546 12.946 5.69877 12.3564C5.82173 12.1028 5.76893 11.799 5.56762 11.6018L4.07311 10.1073C3.28575 9.31991 3.28575 8.0434 4.0731 7.25605L6.92432 4.40483C7.71168 3.61747 8.98819 3.61747 9.77554 4.40483L11.2701 5.89934C11.468 6.10089 11.7729 6.15292 12.0266 6.0286C12.6165 5.7351 13.2264 5.48372 13.8518 5.27635C14.1196 5.18446 14.2985 4.93165 14.2962 4.64861L14.2966 2.53063C14.297 1.41776 15.1991 0.515704 16.312 0.515288L20.3498 0.511963C21.4626 0.512379 22.3647 1.41443 22.3651 2.5273L22.3665 4.64813C22.3643 4.93141 22.5437 5.18434 22.8118 5.27588C23.4361 5.48425 24.0449 5.73646 24.6337 6.0305C24.8873 6.1534 25.1911 6.10065 25.3883 5.89934ZM27.3886 37.2198V34.5674C27.3886 32.0057 25.3155 29.9328 22.754 29.9329C22.0927 29.9329 21.4927 29.5962 21.1491 29.032C21.0201 28.8202 20.7438 28.7531 20.5321 28.8821C20.3202 29.0111 20.2532 29.2874 20.3821 29.4992C20.8901 30.3331 21.7768 30.831 22.754 30.831C24.8194 30.8309 26.4905 32.5022 26.4905 34.5674V37.2198C26.4905 37.4677 26.6916 37.6688 26.9396 37.6688C27.1875 37.6688 27.3886 37.4677 27.3886 37.2198ZM19.2098 30.6007C19.4521 30.5479 19.6057 30.3087 19.5529 30.0664C19.5001 29.8241 19.2609 29.6705 19.0186 29.7232C18.0769 29.9284 17.1231 29.7192 16.3677 29.2005C16.4976 28.9131 16.5774 28.6039 16.6027 28.2836C20.4856 29.4267 24.3016 26.4606 24.3016 22.5556V18.8792C24.3016 17.1461 22.8916 15.7362 21.1585 15.7362H15.4335C13.7004 15.7362 12.2904 17.1462 12.2904 18.8793V21.7902C11.9905 21.6347 11.7853 21.3251 11.7853 20.9688V18.6361C11.7853 12.3666 16.7842 10.5559 21.4588 12.1856L21.0999 12.3333C20.671 12.5099 20.7616 13.1456 21.223 13.195L22.0122 13.2795C23.5313 13.4422 24.8744 14.234 25.7352 15.4652C25.1704 16.1515 24.8629 17.0059 24.8629 17.906V20.9689C24.8629 21.2168 25.064 21.4179 25.3119 21.4179C25.5599 21.4179 25.761 21.2168 25.761 20.9689V17.906C25.761 17.1256 26.0623 16.3901 26.6095 15.8352C26.6931 15.7504 26.7253 15.6587 26.7383 15.5503C26.7578 15.3886 26.6899 15.2829 26.645 15.213C26.6415 15.2076 26.6382 15.2024 26.6351 15.1974C25.7848 13.8471 24.4613 12.9036 22.9265 12.5293C23.1718 12.3227 23.1269 11.9237 22.8316 11.7814C19.802 10.323 15.6818 10.1657 13.1126 12.6423C11.0319 14.648 10.8628 17.5016 10.8873 18.641V20.9688C10.8873 21.8277 11.4883 22.5496 12.2948 22.7435C12.3786 25.0368 13.7543 27.0061 15.7142 27.9433V28.0615C15.7142 29.098 14.8742 29.9329 13.838 29.9329C11.2762 29.9329 9.20349 32.006 9.20349 34.5674V37.2198C9.20349 37.4677 9.40454 37.6688 9.6525 37.6688C9.90047 37.6688 10.1015 37.4677 10.1015 37.2198V34.5674C10.1015 32.502 11.7729 30.8309 13.8381 30.831C13.6705 30.831 14.922 30.9625 15.8694 29.9473C16.8263 30.6004 18.0281 30.8582 19.2098 30.6007ZM23.4036 22.5215C23.4036 25.3379 21.1123 27.6291 18.296 27.6291C15.4797 27.6291 13.1884 25.3379 13.1884 22.5215V18.8793C13.1884 17.6414 14.1956 16.6342 15.4335 16.6342H21.1585C22.3964 16.6342 23.4036 17.6413 23.4036 18.8792V22.5215ZM21.4952 35.3676H22.8423C23.0903 35.3676 23.2913 35.5686 23.2913 35.8166C23.2913 36.0646 23.0903 36.2656 22.8423 36.2656H21.4952C21.2473 36.2656 21.0462 36.0646 21.0462 35.8166C21.0462 35.5686 21.2473 35.3676 21.4952 35.3676Z"/>
</mask>
<path fill-rule="evenodd" clip-rule="evenodd" d="M25.3883 5.89934L26.8829 4.40483C27.6702 3.61748 28.9467 3.61748 29.7341 4.40483L32.5853 7.25605C33.3726 8.0434 33.3726 9.31991 32.5853 10.1073L31.0908 11.6018C30.8892 11.7998 30.8372 12.1046 30.9615 12.3583C31.255 12.9482 31.5064 13.5581 31.7138 14.1836C31.8058 14.4511 32.0585 14.63 32.3415 14.6279L34.46 14.6298C35.5732 14.63 36.4756 15.5324 36.4758 16.6456L36.4753 20.6786C36.4749 21.7915 35.5728 22.6936 34.46 22.694L31.3407 22.6968C31.333 22.6969 31.3252 22.6969 31.3175 22.6968C30.9464 22.6909 30.6503 22.3853 30.6562 22.0142C30.6621 21.6431 30.9677 21.347 31.3388 21.3529L34.4585 21.3496C34.8293 21.3493 35.1297 21.0489 35.13 20.6782L35.131 16.6437C35.1309 16.2726 34.8301 15.9718 34.459 15.9717L32.3377 15.9698C31.4766 15.9716 30.711 15.4223 30.4369 14.606C30.2491 14.0407 30.0218 13.4893 29.7564 12.9561C29.3752 12.1853 29.5299 11.257 30.1404 10.6514L31.6349 9.15686C31.8973 8.89443 31.8973 8.46888 31.6349 8.20645L28.7837 5.35524C28.5212 5.09281 28.0957 5.0928 27.8333 5.35523L26.3387 6.84975C25.7331 7.46062 24.8046 7.61548 24.0335 7.23419C23.5005 6.96902 22.9495 6.74164 22.3846 6.5537C21.5678 6.2801 21.0179 5.51431 21.0198 4.65288L21.0179 2.53158C21.0176 2.16086 20.7172 1.86041 20.3464 1.86012L16.3124 1.85964C15.9414 1.8597 15.6406 2.1605 15.6405 2.53158L15.6381 4.65241C15.6393 5.51324 15.0902 6.27861 14.2743 6.55322C13.709 6.74098 13.1577 6.96843 12.6244 7.23371C11.8535 7.61488 10.9253 7.46026 10.3197 6.84975L8.82514 5.35523C8.56271 5.0928 8.13716 5.0928 7.87473 5.35523L5.02351 8.20645C4.76108 8.46888 4.76108 8.89443 5.02351 9.15686L6.51803 10.6514C7.12872 11.2571 7.28352 12.1855 6.90246 12.9566C6.6373 13.4896 6.40992 14.0406 6.22197 14.6055C5.94891 15.4227 5.18276 15.9729 4.32116 15.9703L2.19985 15.9722C1.82878 15.9723 1.52798 16.2731 1.52792 16.6442L1.52792 20.6777C1.52798 21.0488 1.82878 21.3496 2.19985 21.3496L5.31956 21.351C5.68155 21.3578 5.97315 21.6502 5.97891 22.0123C5.98485 22.3834 5.68874 22.689 5.31766 22.6949L2.19843 22.6921C1.08521 22.6919 0.182796 21.7895 0.182617 20.6763V16.6427C0.18529 15.5308 1.08604 14.6301 2.19795 14.6274L4.31878 14.626C4.60224 14.6286 4.85529 14.4491 4.94653 14.1807C5.15407 13.5557 5.40546 12.946 5.69877 12.3564C5.82173 12.1028 5.76893 11.799 5.56762 11.6018L4.07311 10.1073C3.28575 9.31991 3.28575 8.0434 4.0731 7.25605L6.92432 4.40483C7.71168 3.61747 8.98819 3.61747 9.77554 4.40483L11.2701 5.89934C11.468 6.10089 11.7729 6.15292 12.0266 6.0286C12.6165 5.7351 13.2264 5.48372 13.8518 5.27635C14.1196 5.18446 14.2985 4.93165 14.2962 4.64861L14.2966 2.53063C14.297 1.41776 15.1991 0.515704 16.312 0.515288L20.3498 0.511963C21.4626 0.512379 22.3647 1.41443 22.3651 2.5273L22.3665 4.64813C22.3643 4.93141 22.5437 5.18434 22.8118 5.27588C23.4361 5.48425 24.0449 5.73646 24.6337 6.0305C24.8873 6.1534 25.1911 6.10065 25.3883 5.89934ZM27.3886 37.2198V34.5674C27.3886 32.0057 25.3155 29.9328 22.754 29.9329C22.0927 29.9329 21.4927 29.5962 21.1491 29.032C21.0201 28.8202 20.7438 28.7531 20.5321 28.8821C20.3202 29.0111 20.2532 29.2874 20.3821 29.4992C20.8901 30.3331 21.7768 30.831 22.754 30.831C24.8194 30.8309 26.4905 32.5022 26.4905 34.5674V37.2198C26.4905 37.4677 26.6916 37.6688 26.9396 37.6688C27.1875 37.6688 27.3886 37.4677 27.3886 37.2198ZM19.2098 30.6007C19.4521 30.5479 19.6057 30.3087 19.5529 30.0664C19.5001 29.8241 19.2609 29.6705 19.0186 29.7232C18.0769 29.9284 17.1231 29.7192 16.3677 29.2005C16.4976 28.9131 16.5774 28.6039 16.6027 28.2836C20.4856 29.4267 24.3016 26.4606 24.3016 22.5556V18.8792C24.3016 17.1461 22.8916 15.7362 21.1585 15.7362H15.4335C13.7004 15.7362 12.2904 17.1462 12.2904 18.8793V21.7902C11.9905 21.6347 11.7853 21.3251 11.7853 20.9688V18.6361C11.7853 12.3666 16.7842 10.5559 21.4588 12.1856L21.0999 12.3333C20.671 12.5099 20.7616 13.1456 21.223 13.195L22.0122 13.2795C23.5313 13.4422 24.8744 14.234 25.7352 15.4652C25.1704 16.1515 24.8629 17.0059 24.8629 17.906V20.9689C24.8629 21.2168 25.064 21.4179 25.3119 21.4179C25.5599 21.4179 25.761 21.2168 25.761 20.9689V17.906C25.761 17.1256 26.0623 16.3901 26.6095 15.8352C26.6931 15.7504 26.7253 15.6587 26.7383 15.5503C26.7578 15.3886 26.6899 15.2829 26.645 15.213C26.6415 15.2076 26.6382 15.2024 26.6351 15.1974C25.7848 13.8471 24.4613 12.9036 22.9265 12.5293C23.1718 12.3227 23.1269 11.9237 22.8316 11.7814C19.802 10.323 15.6818 10.1657 13.1126 12.6423C11.0319 14.648 10.8628 17.5016 10.8873 18.641V20.9688C10.8873 21.8277 11.4883 22.5496 12.2948 22.7435C12.3786 25.0368 13.7543 27.0061 15.7142 27.9433V28.0615C15.7142 29.098 14.8742 29.9329 13.838 29.9329C11.2762 29.9329 9.20349 32.006 9.20349 34.5674V37.2198C9.20349 37.4677 9.40454 37.6688 9.6525 37.6688C9.90047 37.6688 10.1015 37.4677 10.1015 37.2198V34.5674C10.1015 32.502 11.7729 30.8309 13.8381 30.831C13.6705 30.831 14.922 30.9625 15.8694 29.9473C16.8263 30.6004 18.0281 30.8582 19.2098 30.6007ZM23.4036 22.5215C23.4036 25.3379 21.1123 27.6291 18.296 27.6291C15.4797 27.6291 13.1884 25.3379 13.1884 22.5215V18.8793C13.1884 17.6414 14.1956 16.6342 15.4335 16.6342H21.1585C22.3964 16.6342 23.4036 17.6413 23.4036 18.8792V22.5215ZM21.4952 35.3676H22.8423C23.0903 35.3676 23.2913 35.5686 23.2913 35.8166C23.2913 36.0646 23.0903 36.2656 22.8423 36.2656H21.4952C21.2473 36.2656 21.0462 36.0646 21.0462 35.8166C21.0462 35.5686 21.2473 35.3676 21.4952 35.3676Z" fill="white"/>
<path d="M26.8829 4.40483L29.7113 7.23326L29.7113 7.23325L26.8829 4.40483ZM25.3883 5.89934L22.5599 3.07091L22.5456 3.08524L22.5314 3.09972L25.3883 5.89934ZM29.7341 4.40483L26.9056 7.23326L26.9056 7.23326L29.7341 4.40483ZM32.5853 7.25605L35.4137 4.42762L35.4137 4.42762L32.5853 7.25605ZM32.5853 10.1073L29.7569 7.27883L29.7569 7.27884L32.5853 10.1073ZM31.0908 11.6018L33.8939 14.4553L33.9066 14.4428L33.9192 14.4302L31.0908 11.6018ZM30.9615 12.3583L27.3696 14.1185L27.3749 14.1293L27.3803 14.1401L30.9615 12.3583ZM31.7138 14.1836L27.917 15.4424L27.9241 15.4638L27.9315 15.4852L31.7138 14.1836ZM32.3415 14.6279L32.3451 10.6279L32.3282 10.6279L32.3113 10.628L32.3415 14.6279ZM34.46 14.6298L34.4564 18.6298L34.4593 18.6298L34.46 14.6298ZM36.4758 16.6456L40.4758 16.6461L40.4758 16.645L36.4758 16.6456ZM36.4753 20.6786L40.4753 20.6801L40.4753 20.6791L36.4753 20.6786ZM34.46 22.694L34.4585 18.694L34.4563 18.694L34.46 22.694ZM31.3407 22.6968L31.3371 18.6968L31.3078 18.6968L31.2785 18.6973L31.3407 22.6968ZM31.3175 22.6968L31.2541 26.6963L31.2562 26.6964L31.3175 22.6968ZM30.6562 22.0142L34.6557 22.0782L34.6557 22.0776L30.6562 22.0142ZM31.3388 21.3529L31.2748 25.3524L31.309 25.353L31.3431 25.3529L31.3388 21.3529ZM34.4585 21.3496L34.4553 17.3496L34.4543 17.3496L34.4585 21.3496ZM35.13 20.6782L39.13 20.6813L39.13 20.6791L35.13 20.6782ZM35.131 16.6437L39.131 16.6446L39.131 16.643L35.131 16.6437ZM34.459 15.9717L34.4554 19.9717L34.4584 19.9717L34.459 15.9717ZM32.3377 15.9698L32.3413 11.9698L32.3294 11.9699L32.3377 15.9698ZM30.4369 14.606L26.6408 15.8669L26.6449 15.8792L30.4369 14.606ZM29.7564 12.9561L26.1708 14.7291L26.1753 14.7381L29.7564 12.9561ZM30.1404 10.6514L32.9574 13.4911L32.9631 13.4855L32.9688 13.4798L30.1404 10.6514ZM31.6349 9.15686L28.8065 6.32843L28.8065 6.32843L31.6349 9.15686ZM31.6349 8.20645L34.4633 5.37803L34.4633 5.37803L31.6349 8.20645ZM28.7837 5.35524L25.9552 8.18366L25.9552 8.18366L28.7837 5.35524ZM27.8333 5.35523L30.6617 8.18366L30.6617 8.18366L27.8333 5.35523ZM26.3387 6.84975L23.5103 4.02132L23.5042 4.0274L23.4982 4.0335L26.3387 6.84975ZM24.0335 7.23419L22.252 10.8156L22.2605 10.8198L24.0335 7.23419ZM22.3846 6.5537L21.114 10.3466L21.1218 10.3491L22.3846 6.5537ZM21.0198 4.65288L25.0198 4.6617L25.0198 4.6493L21.0198 4.65288ZM21.0179 2.53158L17.0179 2.53479L17.0179 2.53516L21.0179 2.53158ZM20.3464 1.86012L20.3496 -2.13988L20.3469 -2.13988L20.3464 1.86012ZM16.3124 1.85964L16.3129 -2.14036L16.3118 -2.14036L16.3124 1.85964ZM15.6405 2.53158L19.6405 2.53606L19.6405 2.53221L15.6405 2.53158ZM15.6381 4.65241L11.6381 4.64793L11.6381 4.65793L15.6381 4.65241ZM14.2743 6.55322L15.5351 10.3493L15.5427 10.3468L15.5503 10.3442L14.2743 6.55322ZM12.6244 7.23371L14.3974 10.8193L14.4059 10.8151L12.6244 7.23371ZM10.3197 6.84975L13.1594 4.03267L13.1537 4.02698L13.1481 4.02132L10.3197 6.84975ZM8.82514 5.35523L11.6536 2.52681L11.6536 2.52681L8.82514 5.35523ZM7.87473 5.35523L10.7032 8.18366L10.7032 8.18366L7.87473 5.35523ZM5.02351 8.20645L2.19508 5.37803L2.19508 5.37803L5.02351 8.20645ZM5.02351 9.15686L2.19508 11.9853L2.19509 11.9853L5.02351 9.15686ZM6.51803 10.6514L3.6896 13.4798L3.6954 13.4856L3.70122 13.4914L6.51803 10.6514ZM6.90246 12.9566L10.4838 14.7381L10.4885 14.7287L6.90246 12.9566ZM6.22197 14.6055L10.0158 15.8733L10.0174 15.8683L6.22197 14.6055ZM4.32116 15.9703L4.33302 11.9703L4.3253 11.9703L4.31758 11.9703L4.32116 15.9703ZM2.19985 15.9722L2.20049 19.9722L2.20344 19.9722L2.19985 15.9722ZM1.52792 16.6442L-2.47208 16.6435L-2.47208 16.6442L1.52792 16.6442ZM1.52792 20.6777L-2.47208 20.6777L-2.47208 20.6783L1.52792 20.6777ZM2.19985 21.3496L2.20168 17.3496L2.20049 17.3496L2.19985 21.3496ZM5.31956 21.351L5.39439 17.3517L5.35789 17.3511L5.32139 17.351L5.31956 21.351ZM5.97891 22.0123L1.97941 22.0759L1.97942 22.0763L5.97891 22.0123ZM5.31766 22.6949L5.31401 26.6949L5.34753 26.695L5.38104 26.6944L5.31766 22.6949ZM2.19843 22.6921L2.20209 18.6921L2.19907 18.6921L2.19843 22.6921ZM0.182617 20.6763L-3.81738 20.6763L-3.81738 20.6769L0.182617 20.6763ZM0.182617 16.6427L-3.81738 16.6331V16.6427H0.182617ZM2.19795 14.6274L2.19526 10.6274L2.18834 10.6274L2.19795 14.6274ZM4.31878 14.626L4.35566 10.6261L4.33588 10.626L4.3161 10.626L4.31878 14.626ZM4.94653 14.1807L8.73365 15.4682L8.73822 15.4548L8.7427 15.4413L4.94653 14.1807ZM5.69877 12.3564L9.28008 14.138L9.2892 14.1197L9.29813 14.1013L5.69877 12.3564ZM5.56762 11.6018L2.73919 14.4302L2.75352 14.4445L2.76799 14.4587L5.56762 11.6018ZM4.07311 10.1073L1.24468 12.9357L1.24468 12.9357L4.07311 10.1073ZM4.0731 7.25605L6.90153 10.0845L6.90153 10.0845L4.0731 7.25605ZM6.92432 4.40483L9.75275 7.23325L9.75275 7.23325L6.92432 4.40483ZM9.77554 4.40483L12.604 1.5764L12.604 1.5764L9.77554 4.40483ZM11.2701 5.89934L14.1236 3.09625L14.1111 3.08353L14.0985 3.07091L11.2701 5.89934ZM12.0266 6.0286L13.7868 9.62049L13.7976 9.61519L13.8084 9.60983L12.0266 6.0286ZM13.8518 5.27635L15.1107 9.0731L15.1306 9.06649L15.1504 9.05968L13.8518 5.27635ZM14.2962 4.64861L10.2962 4.64771L10.2961 4.66453L10.2963 4.68134L14.2962 4.64861ZM14.2966 2.53063L10.2966 2.52913L10.2966 2.52973L14.2966 2.53063ZM16.312 0.515288L16.3135 4.51529L16.3153 4.51529L16.312 0.515288ZM20.3498 0.511963L20.3513 -3.48804L20.3465 -3.48804L20.3498 0.511963ZM22.3651 2.5273L18.3651 2.52879L18.3651 2.52999L22.3651 2.5273ZM22.3665 4.64813L26.3664 4.67915L26.3665 4.6623L26.3665 4.64544L22.3665 4.64813ZM22.8118 5.27588L21.5192 9.06128L21.5323 9.06574L21.5454 9.0701L22.8118 5.27588ZM24.6337 6.0305L22.8466 9.60907L22.8678 9.61968L22.8892 9.63003L24.6337 6.0305ZM22.754 29.9329L22.754 33.9329L22.7542 33.9329L22.754 29.9329ZM21.1491 29.032L24.5653 26.9512L24.5652 26.9511L21.1491 29.032ZM20.5321 28.8821L22.6123 32.2986L22.6134 32.2979L20.5321 28.8821ZM20.3821 29.4992L16.9659 31.5799L16.9661 31.5801L20.3821 29.4992ZM22.754 30.831L22.754 34.831L22.7541 34.831L22.754 30.831ZM19.5529 30.0664L23.4611 29.2145L23.4611 29.2145L19.5529 30.0664ZM19.2098 30.6007L20.0613 34.509L20.0617 34.5089L19.2098 30.6007ZM19.0186 29.7232L18.1676 25.8148L18.1669 25.815L19.0186 29.7232ZM16.3677 29.2005L12.723 27.5525L11.3438 30.6028L14.1033 32.4978L16.3677 29.2005ZM16.6027 28.2836L17.7323 24.4464L13.0025 23.054L12.615 27.9692L16.6027 28.2836ZM12.2904 21.7902L10.4491 25.3412L16.2904 28.3701V21.7902H12.2904ZM21.4588 12.1856L22.9817 15.8843L32.7193 11.8751L22.7756 8.4085L21.4588 12.1856ZM21.0999 12.3333L22.6224 16.0323L22.6228 16.0321L21.0999 12.3333ZM21.223 13.195L21.649 9.21775L21.6487 9.21772L21.223 13.195ZM22.0122 13.2795L21.5863 17.2568L21.5863 17.2568L22.0122 13.2795ZM25.7352 15.4652L28.8239 18.007L30.7537 15.662L29.0134 13.1731L25.7352 15.4652ZM26.6095 15.8352L29.4578 18.6436L29.4586 18.6428L26.6095 15.8352ZM26.7383 15.5503L22.7671 15.0717L22.7669 15.0732L26.7383 15.5503ZM26.645 15.213L30.0103 13.0509L30.0103 13.0509L26.645 15.213ZM26.6351 15.1974L23.2502 17.3288L23.2526 17.3326L26.6351 15.1974ZM22.9265 12.5293L20.3492 9.47028L14.3226 14.5479L21.9787 16.4153L22.9265 12.5293ZM22.8316 11.7814L24.568 8.17795L24.5667 8.17732L22.8316 11.7814ZM13.1126 12.6423L15.8886 15.5222L15.8887 15.5221L13.1126 12.6423ZM10.8873 18.641H14.8873V18.598L14.8864 18.5549L10.8873 18.641ZM12.2948 22.7435L16.2921 22.5973L16.1812 19.5639L13.2299 18.8543L12.2948 22.7435ZM15.7142 27.9433H19.7142V25.4222L17.4398 24.3346L15.7142 27.9433ZM13.8381 30.831V34.831L13.8382 26.831L13.8381 30.831ZM15.8694 29.9473L18.1244 26.6435L15.2879 24.7074L12.9449 27.2183L15.8694 29.9473ZM24.0544 1.5764L22.5599 3.07091L28.2168 8.72777L29.7113 7.23326L24.0544 1.5764ZM32.5625 1.5764C30.2131 -0.773044 26.4039 -0.773052 24.0544 1.5764L29.7113 7.23325C28.9365 8.008 27.6804 8.008 26.9056 7.23326L32.5625 1.5764ZM35.4137 4.42762L32.5625 1.5764L26.9056 7.23326L29.7569 10.0845L35.4137 4.42762ZM35.4137 12.9357C37.7632 10.5862 37.7632 6.77706 35.4137 4.42762L29.7569 10.0845C28.9821 9.30973 28.9821 8.05359 29.7569 7.27883L35.4137 12.9357ZM33.9192 14.4302L35.4137 12.9357L29.7569 7.27884L28.2624 8.77335L33.9192 14.4302ZM34.5534 10.5981C35.1869 11.8908 34.9223 13.4451 33.8939 14.4553L28.2877 8.74825C26.8562 10.1544 26.4875 12.3184 27.3696 14.1185L34.5534 10.5981ZM35.5105 12.9247C35.2437 12.12 34.9203 11.3354 34.5428 10.5765L27.3803 14.1401C27.5897 14.561 27.7691 14.9962 27.917 15.4424L35.5105 12.9247ZM32.3113 10.628C33.7474 10.6171 35.0291 11.525 35.4961 12.8819L27.9315 15.4852C28.5826 17.3772 30.3697 18.6429 32.3717 18.6278L32.3113 10.628ZM34.4636 10.6298L32.3451 10.6279L32.3379 18.6279L34.4564 18.6298L34.4636 10.6298ZM40.4758 16.645C40.4753 13.3231 37.7825 10.6303 34.4606 10.6298L34.4593 18.6298C33.3639 18.6296 32.476 17.7416 32.4758 16.6462L40.4758 16.645ZM40.4753 20.6791L40.4758 16.6461L32.4758 16.6451L32.4753 20.6782L40.4753 20.6791ZM34.4615 26.694C37.7823 26.6927 40.4741 24.001 40.4753 20.6801L32.4753 20.6771C32.4757 19.582 33.3634 18.6944 34.4585 18.694L34.4615 26.694ZM31.3444 26.6968L34.4636 26.694L34.4563 18.694L31.3371 18.6968L31.3444 26.6968ZM31.2562 26.6964C31.3047 26.6971 31.3538 26.6971 31.403 26.6963L31.2785 18.6973C31.3123 18.6968 31.3456 18.6968 31.3787 18.6973L31.2562 26.6964ZM26.6567 21.9502C26.6154 24.5308 28.6742 26.6554 31.2541 26.6963L31.3808 18.6973C33.2185 18.7264 34.6851 20.2399 34.6557 22.0782L26.6567 21.9502ZM31.4028 17.3535C28.8222 17.3122 26.6976 19.371 26.6567 21.9508L34.6557 22.0776C34.6266 23.9152 33.1132 25.3819 31.2748 25.3524L31.4028 17.3535ZM34.4543 17.3496L31.3346 17.3529L31.3431 25.3529L34.4628 25.3496L34.4543 17.3496ZM31.13 20.675C31.1315 18.839 32.6195 17.3511 34.4553 17.3496L34.4618 25.3496C37.0391 25.3476 39.128 23.2587 39.13 20.6813L31.13 20.675ZM31.131 16.6427L31.13 20.6772L39.13 20.6791L39.131 16.6446L31.131 16.6427ZM34.4584 19.9717C32.6208 19.9715 31.1313 18.4819 31.131 16.6443L39.131 16.643C39.1305 14.0634 37.0394 11.9722 34.4597 11.9717L34.4584 19.9717ZM32.3341 19.9698L34.4554 19.9717L34.4626 11.9717L32.3413 11.9698L32.3341 19.9698ZM26.6449 15.8792C27.467 18.3277 29.7636 19.9752 32.346 19.9698L32.3294 11.9699C33.1897 11.9681 33.9549 12.5169 34.2289 13.3328L26.6449 15.8792ZM26.1753 14.7381C26.3567 15.1028 26.5123 15.48 26.6408 15.8669L34.233 13.3452C33.986 12.6014 33.6868 11.8759 33.3375 11.1741L26.1753 14.7381ZM27.3233 7.81164C25.4908 9.62948 25.0268 12.4156 26.1708 14.7291L33.342 11.1831C33.7237 11.955 33.5689 12.8846 32.9574 13.4911L27.3233 7.81164ZM28.8065 6.32843L27.3119 7.82295L32.9688 13.4798L34.4633 11.9853L28.8065 6.32843ZM28.8065 11.0349C27.5068 9.73522 27.5068 7.62811 28.8065 6.32843L34.4633 11.9853C36.2879 10.1608 36.2878 7.20254 34.4633 5.37803L28.8065 11.0349ZM25.9552 8.18366L28.8065 11.0349L34.4633 5.37803L31.6121 2.52681L25.9552 8.18366ZM30.6617 8.18366C29.362 9.48334 27.2549 9.48332 25.9552 8.18366L31.6121 2.52681C29.7876 0.702295 26.8294 0.702264 25.0048 2.52681L30.6617 8.18366ZM29.1672 9.67818L30.6617 8.18366L25.0048 2.52681L23.5103 4.02132L29.1672 9.67818ZM22.2605 10.8198C24.5749 11.9642 27.3617 11.4993 29.1793 9.666L23.4982 4.0335C24.1045 3.42193 25.0343 3.26675 25.8066 3.64861L22.2605 10.8198ZM21.1218 10.3491C21.509 10.478 21.8867 10.6338 22.252 10.8156L25.815 3.65282C25.1143 3.30423 24.3899 3.00531 23.6473 2.75825L21.1218 10.3491ZM17.0198 4.64406C17.0141 7.22859 18.664 9.52584 21.114 10.3466L23.6551 2.76084C24.4716 3.03436 25.0217 3.80003 25.0198 4.6617L17.0198 4.64406ZM17.0179 2.53516L17.0198 4.65647L25.0198 4.6493L25.0179 2.528L17.0179 2.53516ZM20.3432 5.86011C18.5073 5.85864 17.0194 4.3707 17.0179 2.53479L25.0179 2.52837C25.0158 -0.0489836 22.927 -2.13782 20.3496 -2.13988L20.3432 5.86011ZM16.312 5.85964L20.346 5.86012L20.3469 -2.13988L16.3129 -2.14036L16.312 5.85964ZM19.6405 2.53221C19.6402 4.36978 18.1506 5.85935 16.3131 5.85964L16.3118 -2.14036C13.7321 -2.13995 11.6409 -0.0487752 11.6405 2.53094L19.6405 2.53221ZM19.6381 4.65689L19.6405 2.53606L11.6405 2.5271L11.6381 4.64793L19.6381 4.65689ZM15.5503 10.3442C17.9957 9.52113 19.6417 7.22719 19.6381 4.64689L11.6381 4.65793C11.6369 3.79929 12.1846 3.03609 12.9983 2.7622L15.5503 10.3442ZM14.4059 10.8151C14.7713 10.6333 15.1486 10.4777 15.5351 10.3493L13.0134 2.75713C12.2694 3.00427 11.5441 3.30352 10.8429 3.65234L14.4059 10.8151ZM7.47992 9.66683C9.29775 11.4993 12.0839 11.9633 14.3974 10.8193L10.8514 3.64813C11.6232 3.26645 12.5528 3.42125 13.1594 4.03267L7.47992 9.66683ZM5.99671 8.18366L7.49122 9.67817L13.1481 4.02132L11.6536 2.52681L5.99671 8.18366ZM10.7032 8.18366C9.40349 9.48333 7.29638 9.48333 5.99671 8.18366L11.6536 2.52681C9.82904 0.702278 6.87083 0.702278 5.0463 2.52681L10.7032 8.18366ZM7.85194 11.0349L10.7032 8.18366L5.0463 2.52681L2.19508 5.37803L7.85194 11.0349ZM7.85194 6.32843C9.1516 7.62809 9.15161 9.73521 7.85194 11.0349L2.19508 5.37803C0.370553 7.20256 0.370561 10.1608 2.19508 11.9853L7.85194 6.32843ZM9.34645 7.82294L7.85194 6.32843L2.19509 11.9853L3.6896 13.4798L9.34645 7.82294ZM10.4885 14.7287C11.6319 12.415 11.1675 9.62902 9.33483 7.81137L3.70122 13.4914C3.08999 12.8851 2.93514 11.956 3.31645 11.1844L10.4885 14.7287ZM10.0174 15.8683C10.1462 15.4811 10.3021 15.1035 10.4838 14.7381L3.32109 11.1751C2.97251 11.8758 2.67359 12.6002 2.42652 13.3428L10.0174 15.8683ZM4.3093 19.9703C6.89624 19.978 9.19611 18.3262 10.0158 15.8733L2.42818 13.3378C2.70171 12.5192 3.46929 11.9678 4.33302 11.9703L4.3093 19.9703ZM2.20344 19.9722L4.32474 19.9703L4.31758 11.9703L2.19627 11.9722L2.20344 19.9722ZM5.52792 16.6448C5.52762 18.4824 4.03806 19.9719 2.20049 19.9722L2.19922 11.9722C-0.380503 11.9726 -2.47167 14.0638 -2.47208 16.6435L5.52792 16.6448ZM5.52792 20.6777L5.52792 16.6442L-2.47208 16.6442L-2.47208 20.6777L5.52792 20.6777ZM2.20049 17.3496C4.03806 17.3499 5.52762 18.8395 5.52792 20.677L-2.47208 20.6783C-2.47167 23.258 -0.380499 25.3492 2.19922 25.3496L2.20049 17.3496ZM5.32139 17.351L2.20168 17.3496L2.19803 25.3496L5.31774 25.351L5.32139 17.351ZM9.9784 21.9486C9.93835 19.4319 7.91153 17.3988 5.39439 17.3517L5.24473 25.3503C3.45157 25.3168 2.00794 23.8686 1.97941 22.0759L9.9784 21.9486ZM5.38104 26.6944C7.96086 26.6535 10.0197 24.5289 9.97839 21.9483L1.97942 22.0763C1.95 20.238 3.41661 18.7245 5.25428 18.6954L5.38104 26.6944ZM2.19477 26.6921L5.31401 26.6949L5.32132 18.6949L2.20209 18.6921L2.19477 26.6921ZM-3.81738 20.6769C-3.81685 23.9988 -1.12407 26.6915 2.19778 26.6921L2.19907 18.6921C3.29449 18.6922 4.18244 19.5802 4.18262 20.6756L-3.81738 20.6769ZM-3.81738 16.6427V20.6763H4.18262V16.6427H-3.81738ZM2.18834 10.6274C-1.1252 10.6354 -3.80941 13.3196 -3.81737 16.6331L4.18261 16.6523C4.17999 17.7421 3.29728 18.6248 2.20757 18.6274L2.18834 10.6274ZM4.3161 10.626L2.19526 10.6274L2.20064 18.6274L4.32147 18.626L4.3161 10.626ZM1.15941 12.8932C1.62383 11.5271 2.91247 10.6128 4.35566 10.6261L4.28191 18.6258C6.29201 18.6443 8.08675 17.371 8.73365 15.4682L1.15941 12.8932ZM2.11747 10.5748C1.74031 11.3329 1.41714 12.1167 1.15035 12.9201L8.7427 15.4413C8.891 14.9947 9.0706 14.5591 9.28008 14.138L2.11747 10.5748ZM2.76799 14.4587C1.74198 13.4533 1.47259 11.9045 2.09942 10.6115L9.29813 14.1013C10.1709 12.301 9.79588 10.1448 8.36725 8.74484L2.76799 14.4587ZM1.24468 12.9357L2.73919 14.4302L8.39605 8.77335L6.90153 7.27884L1.24468 12.9357ZM1.24468 4.42762C-1.10477 6.77707 -1.10477 10.5862 1.24468 12.9357L6.90153 7.27884C7.67627 8.05358 7.67628 9.30973 6.90153 10.0845L1.24468 4.42762ZM4.0959 1.5764L1.24468 4.42762L6.90153 10.0845L9.75275 7.23325L4.0959 1.5764ZM12.604 1.5764C10.2545 -0.773051 6.44535 -0.773049 4.0959 1.5764L9.75275 7.23325C8.97801 8.008 7.72186 8.008 6.94712 7.23325L12.604 1.5764ZM14.0985 3.07091L12.604 1.5764L6.94712 7.23325L8.44163 8.72777L14.0985 3.07091ZM10.2664 2.43671C11.5591 1.80323 13.1134 2.06785 14.1236 3.09625L8.41651 8.70243C9.82269 10.1339 11.9867 10.5026 13.7868 9.62049L10.2664 2.43671ZM12.593 1.4796C11.7883 1.7464 11.0036 2.06981 10.2448 2.44736L13.8084 9.60983C14.2293 9.40039 14.6645 9.22103 15.1107 9.0731L12.593 1.4796ZM10.2963 4.68134C10.2845 3.24418 11.1931 1.95988 12.5532 1.49302L15.1504 9.05968C17.046 8.40903 18.3124 6.61911 18.296 4.61587L10.2963 4.68134ZM10.2966 2.52973L10.2962 4.64771L18.2962 4.6495L18.2966 2.53152L10.2966 2.52973ZM16.3105 -3.48471C12.9896 -3.48347 10.2979 -0.791706 10.2966 2.52913L18.2966 2.53212C18.2962 3.62723 17.4086 4.51488 16.3135 4.51529L16.3105 -3.48471ZM20.3465 -3.48804L16.3087 -3.48471L16.3153 4.51529L20.3531 4.51196L20.3465 -3.48804ZM26.3651 2.5258C26.3639 -0.795031 23.6721 -3.4868 20.3513 -3.48804L20.3483 4.51196C19.2532 4.51155 18.3655 3.6239 18.3651 2.52879L26.3651 2.5258ZM26.3665 4.64544L26.3651 2.52461L18.3651 2.52999L18.3665 4.65082L26.3665 4.64544ZM24.1043 1.49047C25.4667 1.95565 26.3776 3.24053 26.3664 4.67915L18.3666 4.6171C18.3511 6.62229 19.6207 8.41303 21.5192 9.06128L24.1043 1.49047ZM26.4208 2.45192C25.6639 2.07393 24.8811 1.74963 24.0782 1.48165L21.5454 9.0701C21.9911 9.21887 22.4259 9.399 22.8466 9.60907L26.4208 2.45192ZM22.5314 3.09972C23.5373 2.07327 25.0859 1.80462 26.3783 2.43097L22.8892 9.63003C24.6887 10.5022 26.8449 10.128 28.2453 8.69897L22.5314 3.09972ZM23.3886 34.5674V37.2198H31.3886V34.5674H23.3886ZM22.7542 33.9329C23.1065 33.9329 23.3886 34.2149 23.3886 34.5674H31.3886C31.3886 29.7965 27.5245 25.9327 22.7538 25.9329L22.7542 33.9329ZM17.7329 31.1128C18.8036 32.8707 20.6993 33.9329 22.754 33.9329V25.9329C23.4861 25.9329 24.1818 26.3217 24.5653 26.9512L17.7329 31.1128ZM22.6134 32.2979C20.9376 33.3191 18.7528 32.7871 17.733 31.113L24.5652 26.9511C23.2873 24.8533 20.55 24.1871 18.4507 25.4663L22.6134 32.2979ZM23.7984 27.4185C24.8181 29.0927 24.2884 31.278 22.6123 32.2986L18.4518 25.4656C16.352 26.7441 15.6882 29.4821 16.9659 31.5799L23.7984 27.4185ZM22.754 26.831C23.171 26.831 23.5796 27.0593 23.7982 27.4182L16.9661 31.5801C18.2007 33.6069 20.3826 34.831 22.754 34.831V26.831ZM30.4905 34.5674C30.4905 30.2931 27.0285 26.8308 22.7539 26.831L22.7541 34.831C22.6102 34.831 22.4905 34.7113 22.4905 34.5674H30.4905ZM30.4905 37.2198V34.5674H22.4905V37.2198H30.4905ZM26.9396 33.6688C28.9007 33.6688 30.4905 35.2586 30.4905 37.2198H22.4905C22.4905 39.6769 24.4825 41.6688 26.9396 41.6688V33.6688ZM23.3886 37.2198C23.3886 35.2586 24.9784 33.6688 26.9396 33.6688V41.6688C29.3967 41.6688 31.3886 39.6769 31.3886 37.2198H23.3886ZM15.6447 30.9183C15.2269 29.0017 16.4421 27.1101 18.3579 26.6925L20.0617 34.5089C22.4621 33.9857 23.9845 31.6156 23.4611 29.2145L15.6447 30.9183ZM19.8696 33.6316C17.9537 34.0488 16.0623 32.8341 15.6447 30.9183L23.4611 29.2145C22.9379 26.814 20.568 25.2921 18.1676 25.8148L19.8696 33.6316ZM14.1033 32.4978C15.736 33.6191 17.8122 34.08 19.8703 33.6315L18.1669 25.815C18.3417 25.7769 18.5101 25.8193 18.6321 25.9031L14.1033 32.4978ZM12.615 27.9692C12.6259 27.8307 12.6615 27.6884 12.723 27.5525L20.0125 30.8484C20.3338 30.1377 20.5288 29.3772 20.5903 28.5979L12.615 27.9692ZM20.3016 22.5556C20.3016 23.8296 19.0151 24.824 17.7323 24.4464L15.473 32.1207C21.9562 34.0294 28.3016 29.0917 28.3016 22.5556H20.3016ZM20.3016 18.8792V22.5556H28.3016V18.8792H20.3016ZM21.1585 19.7362C20.6827 19.7362 20.3016 19.3555 20.3016 18.8792H28.3016C28.3016 14.9367 25.1005 11.7362 21.1585 11.7362V19.7362ZM15.4335 19.7362H21.1585V11.7362H15.4335V19.7362ZM16.2904 18.8793C16.2904 19.3554 15.9096 19.7362 15.4335 19.7362V11.7362C11.4913 11.7362 8.29042 14.9371 8.29042 18.8793H16.2904ZM16.2904 21.7902V18.8793H8.29042V21.7902H16.2904ZM7.78527 20.9688C7.78527 22.9086 8.90443 24.5403 10.4491 25.3412L14.1317 18.2392C15.0765 18.7291 15.7853 19.7415 15.7853 20.9688H7.78527ZM7.78527 18.6361V20.9688H15.7853V18.6361H7.78527ZM22.7756 8.4085C19.6729 7.32687 16.002 7.22029 12.9066 8.96317C9.58992 10.8306 7.78527 14.3335 7.78527 18.6361H15.7853C15.7853 16.6692 16.4801 16.132 16.8316 15.9341C17.4042 15.6117 18.5701 15.4146 20.1421 15.9626L22.7756 8.4085ZM22.6228 16.0321L22.9817 15.8843L19.9359 8.4868L19.577 8.63458L22.6228 16.0321ZM21.6487 9.21772C25.3164 9.61027 26.0265 14.6311 22.6224 16.0323L19.5774 8.63441C15.3156 10.3886 16.2067 16.6809 20.7973 17.1723L21.6487 9.21772ZM22.4382 9.30228L21.649 9.21775L20.797 17.1723L21.5863 17.2568L22.4382 9.30228ZM29.0134 13.1731C27.4823 10.9834 25.0934 9.58659 22.4381 9.30227L21.5863 17.2568C21.9691 17.2978 22.2664 17.4846 22.4571 17.7574L29.0134 13.1731ZM28.8629 17.906C28.8629 17.9133 28.8613 17.931 28.8532 17.9538C28.845 17.9766 28.8337 17.995 28.8239 18.007L22.6466 12.9235C21.491 14.3278 20.8629 16.0812 20.8629 17.906H28.8629ZM28.8629 20.9689V17.906H20.8629V20.9689H28.8629ZM25.3119 17.4179C27.2731 17.4179 28.8629 19.0077 28.8629 20.9689H20.8629C20.8629 23.426 22.8548 25.4179 25.3119 25.4179V17.4179ZM21.761 20.9689C21.761 19.0077 23.3508 17.4179 25.3119 17.4179V25.4179C27.769 25.4179 29.761 23.426 29.761 20.9689H21.761ZM21.761 17.906V20.9689H29.761V17.906H21.761ZM23.7613 13.0267C22.4749 14.3313 21.761 16.0761 21.761 17.906H29.761C29.761 18.175 29.6497 18.449 29.4578 18.6436L23.7613 13.0267ZM22.7669 15.0732C22.7907 14.8751 22.8508 14.5304 23.0227 14.1284C23.2036 13.7056 23.4592 13.3333 23.7604 13.0276L29.4586 18.6428C30.3289 17.7597 30.623 16.7498 30.7098 16.0275L22.7669 15.0732ZM23.2797 17.3751C23.3083 17.4196 23.1066 17.1262 22.9571 16.7153C22.7874 16.249 22.6934 15.6833 22.7671 15.0717L30.7096 16.0289C30.9097 14.3691 30.116 13.2154 30.0103 13.0509L23.2797 17.3751ZM23.2526 17.3326C23.2659 17.3536 23.2782 17.3728 23.2797 17.3751L30.0103 13.0509C30.0081 13.0474 30.0085 13.0481 30.0092 13.0492C30.0102 13.0507 30.0133 13.0555 30.0175 13.0623L23.2526 17.3326ZM21.9787 16.4153C22.5125 16.5456 22.9582 16.8651 23.2502 17.3288L30.0199 13.0661C28.6114 10.8292 26.4101 9.26172 23.8744 8.64321L21.9787 16.4153ZM21.0953 15.3849C18.7397 14.2499 18.4085 11.1054 20.3492 9.47028L25.5038 15.5883C27.935 13.54 27.5142 9.59756 24.568 8.17795L21.0953 15.3849ZM15.8887 15.5221C16.787 14.6562 18.8914 14.324 21.0966 15.3856L24.5667 8.17732C20.7126 6.32197 14.5767 5.67507 10.3365 9.7625L15.8887 15.5221ZM14.8864 18.5549C14.8793 18.228 14.9028 17.6357 15.0717 17.0109C15.2383 16.3952 15.5053 15.8917 15.8886 15.5222L10.3366 9.76244C6.9986 12.9801 6.85784 17.3156 6.88823 18.7271L14.8864 18.5549ZM14.8873 20.9688V18.641H6.8873V20.9688H14.8873ZM13.2299 18.8543C14.1544 19.0766 14.8873 19.911 14.8873 20.9688H6.8873C6.8873 23.7443 8.82213 26.0225 11.3597 26.6327L13.2299 18.8543ZM17.4398 24.3346C16.772 24.0153 16.3196 23.349 16.2921 22.5973L8.29747 22.8897C8.43769 26.7246 10.7367 29.997 13.9887 31.5519L17.4398 24.3346ZM19.7142 28.0615V27.9433H11.7142V28.0615H19.7142ZM13.838 33.9329C17.0693 33.9329 19.7142 31.3211 19.7142 28.0615H11.7142C11.7142 26.8749 12.679 25.9329 13.838 25.9329V33.9329ZM13.2035 34.5674C13.2035 34.2149 13.4855 33.9329 13.838 33.9329V25.9329C9.06687 25.9329 5.20349 29.797 5.20349 34.5674H13.2035ZM13.2035 37.2198V34.5674H5.20349V37.2198H13.2035ZM9.6525 33.6688C11.6137 33.6688 13.2035 35.2586 13.2035 37.2198H5.20349C5.20349 39.6769 7.1954 41.6688 9.6525 41.6688V33.6688ZM6.10152 37.2198C6.10152 35.2586 7.69134 33.6688 9.6525 33.6688V41.6688C12.1096 41.6688 14.1015 39.6769 14.1015 37.2198H6.10152ZM6.10152 34.5674V37.2198H14.1015V34.5674H6.10152ZM13.8382 26.831C9.56393 26.8308 6.10152 30.2927 6.10152 34.5674H14.1015C14.1015 34.7113 13.9818 34.831 13.838 34.831L13.8382 26.831ZM12.9449 27.2183C13.1529 26.9954 13.3952 26.9045 13.5423 26.8708C13.616 26.854 13.7037 26.8416 13.8215 26.8378C13.8626 26.8364 13.983 26.8333 14.1594 26.8475C14.1986 26.8507 14.3141 26.8603 14.4626 26.8842C14.5177 26.8931 14.7078 26.9238 14.9447 26.993C15.0447 27.0222 15.3282 27.1072 15.6633 27.2808C15.8298 27.3671 16.1425 27.5428 16.4778 27.8404C16.7852 28.1131 17.3998 28.7423 17.6827 29.7827C18.0149 31.0042 17.725 32.1678 17.1774 33.0108C16.7172 33.7194 16.153 34.0976 15.8912 34.2557C15.3655 34.5733 14.8927 34.6877 14.7889 34.7135C14.4745 34.7917 14.2208 34.8121 14.1714 34.8164C14.0025 34.831 13.8719 34.831 13.8381 34.831V26.831C13.7938 26.831 13.6555 26.8311 13.4815 26.8462C13.4296 26.8507 13.1741 26.8714 12.8585 26.9499C12.754 26.9759 12.2809 27.0903 11.7548 27.4081C11.4929 27.5663 10.9286 27.9446 10.4683 28.6533C9.92074 29.4964 9.63083 30.6601 9.963 31.8817C10.2459 32.9222 10.8606 33.5514 11.1681 33.8242C11.5036 34.1219 11.8164 34.2977 11.983 34.3841C12.3185 34.5579 12.6025 34.6431 12.7032 34.6725C12.9415 34.7421 13.1336 34.7733 13.1912 34.7825C13.345 34.8073 13.4682 34.8178 13.5174 34.8217C13.7338 34.8391 13.9319 34.8384 14.0817 34.8335C14.4166 34.8226 14.8449 34.7797 15.329 34.6688C16.2968 34.447 17.6385 33.9144 18.7938 32.6763L12.9449 27.2183ZM18.3583 26.6924C18.2837 26.7087 18.2008 26.6957 18.1244 26.6435L13.6143 33.2511C15.4518 34.5052 17.7725 35.0077 20.0613 34.509L18.3583 26.6924ZM18.296 31.6291C23.3215 31.6291 27.4036 27.547 27.4036 22.5215H19.4036C19.4036 23.1287 18.9032 23.6291 18.296 23.6291V31.6291ZM9.18845 22.5215C9.18845 27.547 13.2705 31.6291 18.296 31.6291V23.6291C17.6888 23.6291 17.1884 23.1287 17.1884 22.5215H9.18845ZM9.18845 18.8793V22.5215H17.1884V18.8793H9.18845ZM15.4335 12.6342C11.9864 12.6342 9.18845 15.4322 9.18845 18.8793H17.1884C17.1884 19.8505 16.4047 20.6342 15.4335 20.6342V12.6342ZM21.1585 12.6342H15.4335V20.6342H21.1585V12.6342ZM27.4036 18.8792C27.4036 15.4319 24.6053 12.6342 21.1585 12.6342V20.6342C20.1875 20.6342 19.4036 19.8507 19.4036 18.8792H27.4036ZM27.4036 22.5215V18.8792H19.4036V22.5215H27.4036ZM22.8423 31.3676H21.4952V39.3676H22.8423V31.3676ZM27.2913 35.8166C27.2913 33.3595 25.2994 31.3676 22.8423 31.3676V39.3676C20.8811 39.3676 19.2913 37.7778 19.2913 35.8166H27.2913ZM22.8423 40.2656C25.2994 40.2656 27.2913 38.2737 27.2913 35.8166H19.2913C19.2913 33.8554 20.8811 32.2656 22.8423 32.2656V40.2656ZM21.4952 40.2656H22.8423V32.2656H21.4952V40.2656ZM17.0462 35.8166C17.0462 38.2737 19.0382 40.2656 21.4952 40.2656V32.2656C23.4564 32.2656 25.0462 33.8554 25.0462 35.8166H17.0462ZM21.4952 31.3676C19.0381 31.3676 17.0462 33.3595 17.0462 35.8166H25.0462C25.0462 37.7778 23.4564 39.3676 21.4952 39.3676V31.3676Z" fill="white" mask="url(#path-1-inside-1)"/>
</svg>