<svg width="24" height="24" viewBox="0 0 24 24" fill="none" xmlns="http://www.w3.org/2000/svg">
<path d="M23.2969 10.8281C23.6852 10.8281 24 10.5133 24 10.125C24 9.73669 23.6852 9.42188 23.2969 9.42188H20.2031V7.07812H23.2969C23.6852 7.07812 24 6.76331 24 6.375C24 5.98669 23.6852 5.67188 23.2969 5.67188H20.2031V5.20312C20.2031 4.42772 19.5723 3.79688 18.7969 3.79688H18.3281V0.703125C18.3281 0.314812 18.0133 0 17.625 0C17.2367 0 16.9219 0.314812 16.9219 0.703125V3.79688H14.5781V0.703125C14.5781 0.314812 14.2633 0 13.875 0C13.4867 0 13.1719 0.314812 13.1719 0.703125V3.79688H10.8281V0.703125C10.8281 0.314812 10.5133 0 10.125 0C9.73669 0 9.42188 0.314812 9.42188 0.703125V3.79688H7.07812V0.703125C7.07812 0.314812 6.76331 0 6.375 0C5.98669 0 5.67188 0.314812 5.67188 0.703125V3.79688H5.20312C4.42772 3.79688 3.79688 4.42772 3.79688 5.20312V5.67188H0.703125C0.314812 5.67188 0 5.98669 0 6.375C0 6.76331 0.314812 7.07812 0.703125 7.07812H3.79688V9.42188H0.703125C0.314812 9.42188 0 9.73669 0 10.125C0 10.5133 0.314812 10.8281 0.703125 10.8281H3.79688V13.1719H0.703125C0.314812 13.1719 0 13.4867 0 13.875C0 14.2633 0.314812 14.5781 0.703125 14.5781H3.79688V16.9219H0.703125C0.314812 16.9219 0 17.2367 0 17.625C0 18.0133 0.314812 18.3281 0.703125 18.3281H3.79688V18.7969C3.79688 19.5723 4.42772 20.2031 5.20312 20.2031H5.67188V23.2969C5.67188 23.6852 5.98669 24 6.375 24C6.76331 24 7.07812 23.6852 7.07812 23.2969V20.2031H9.42188V23.2969C9.42188 23.6852 9.73669 24 10.125 24C10.5133 24 10.8281 23.6852 10.8281 23.2969V20.2031H13.1719V23.2969C13.1719 23.6852 13.4867 24 13.875 24C14.2633 24 14.5781 23.6852 14.5781 23.2969V20.2031H16.9219V23.2969C16.9219 23.6852 17.2367 24 17.625 24C18.0133 24 18.3281 23.6852 18.3281 23.2969V20.2031H18.7969C19.5723 20.2031 20.2031 19.5723 20.2031 18.7969V18.3281H23.2969C23.6852 18.3281 24 18.0133 24 17.625C24 17.2367 23.6852 16.9219 23.2969 16.9219H20.2031V14.5781H23.2969C23.6852 14.5781 24 14.2633 24 13.875C24 13.4867 23.6852 13.1719 23.2969 13.1719H20.2031V10.8281H23.2969ZM18.7969 18.7969H5.20312V5.20312H18.7969C18.7978 19.1746 18.8016 18.7969 18.7969 18.7969Z" fill="black"/>
<path d="M14.8409 7.75284C14.709 7.62098 14.5302 7.54688 14.3438 7.54688H9.65625C9.46978 7.54688 9.29095 7.62098 9.15909 7.75284L7.75284 9.15909C7.62098 9.29095 7.54688 9.46978 7.54688 9.65625V14.3438C7.54688 14.5302 7.62098 14.709 7.75284 14.8409L9.15909 16.2472C9.29095 16.379 9.46978 16.4531 9.65625 16.4531H14.3438C14.5302 16.4531 14.709 16.379 14.8409 16.2472L16.2472 14.8409C16.379 14.709 16.4531 14.5302 16.4531 14.3438V9.65625C16.4531 9.46978 16.379 9.29095 16.2472 9.15909L14.8409 7.75284ZM15.0469 14.0525L14.0525 15.0469H9.94753L8.95312 14.0525V9.94753L9.94748 8.95312H14.0525L15.0469 9.94748V14.0525Z" fill="black"/>
</svg>
