<svg width="22" height="22" viewBox="0 0 29 29" fill="none" xmlns="http://www.w3.org/2000/svg">
<circle cx="14.5" cy="14.5" r="14.5" fill="#C11C3F"/>
<path d="M18.4306 16.818L16.1126 14.5012L18.4293 12.1844C18.8749 11.74 18.8749 11.0169 18.4293 10.5725C17.9836 10.1243 17.2631 10.1256 16.8175 10.5712L14.4996 12.888L12.1816 10.5686C11.736 10.123 11.0142 10.1256 10.5686 10.5686C10.1243 11.0142 10.1243 11.7374 10.5686 12.1818L12.8878 14.5012L10.5738 16.8141C10.1282 17.2597 10.1282 17.9829 10.5738 18.426C10.7966 18.6501 11.0872 18.7609 11.379 18.7609C11.6722 18.7609 11.9627 18.6501 12.1855 18.4273L14.4996 16.1131L16.8188 18.4312C17.0416 18.654 17.3322 18.7648 17.624 18.7648C17.9159 18.7648 18.2078 18.6527 18.4306 18.4312C18.8762 17.9855 18.8762 17.2637 18.4306 16.818Z" fill="white"/>
</svg>
