<svg width="40" height="48" viewBox="0 0 48 48" fill="none" xmlns="http://www.w3.org/2000/svg">
<rect width="48" height="48" rx="12" fill="white"/>
<rect x="0.5" y="0.5" width="47" height="47" rx="11.5" stroke="black" stroke-opacity="0.1"/>
<path d="M18.3411 35.1H26.3179C28.2181 35.1 29.7589 33.5105 29.7589 31.5625V19.918C29.7589 17.9699 28.2181 16.3805 26.3179 16.3805H18.3411C16.4409 16.3805 14.9 17.9699 14.9 19.918V31.5625C14.9 33.5105 16.4409 35.1 18.3411 35.1ZM16.7705 19.918C16.7705 19.0228 17.4779 18.2992 18.3411 18.2992H26.3179C27.1811 18.2992 27.8884 19.0228 27.8884 19.918V31.5625C27.8884 32.4576 27.1811 33.1812 26.3179 33.1812H18.3411C17.4779 33.1812 16.7705 32.4576 16.7705 31.5625V19.918ZM33.1 29.4141V16.4375C33.1 14.4895 31.5591 12.9 29.6589 12.9H20.3875C19.8682 12.9 19.4522 13.3322 19.4522 13.8594C19.4522 14.3866 19.8682 14.8188 20.3875 14.8188H29.6589C30.5221 14.8188 31.2295 15.5424 31.2295 16.4375V29.4141C31.2295 29.9413 31.6455 30.3734 32.1647 30.3734C32.684 30.3734 33.1 29.9413 33.1 29.4141Z" fill="#C11C3F" stroke="#C11C3F" stroke-width="0.2"/>
</svg>
