<svg width="40" height="48" viewBox="0 0 48 48" fill="none" xmlns="http://www.w3.org/2000/svg">
<rect width="48" height="48" rx="12" fill="white"/>
<rect x="0.5" y="0.5" width="47" height="47" rx="11.5" stroke="black" stroke-opacity="0.1"/>
<path d="M17.889 35.0023C16.9221 35.0023 15.9769 34.7155 15.173 34.1784C14.369 33.6412 13.7424 32.8776 13.3724 31.9843C13.0024 31.091 12.9055 30.1081 13.0942 29.1597C13.2828 28.2114 13.7484 27.3403 14.4321 26.6566C15.1158 25.9729 15.9869 25.5073 16.9353 25.3186C17.8836 25.13 18.8666 25.2268 19.7599 25.5968C20.6532 25.9669 21.4167 26.5935 21.9539 27.3974C22.4911 28.2014 22.7778 29.1466 22.7778 30.1135C22.7778 31.4101 22.2627 32.6535 21.3459 33.5704C20.4291 34.4872 19.1856 35.0023 17.889 35.0023ZM17.889 27.6691C17.4056 27.6691 16.933 27.8125 16.531 28.081C16.129 28.3496 15.8157 28.7314 15.6307 29.1781C15.4457 29.6247 15.3973 30.1162 15.4916 30.5904C15.5859 31.0645 15.8187 31.5001 16.1606 31.8419C16.5024 32.1838 16.938 32.4166 17.4121 32.5109C17.8863 32.6052 18.3778 32.5568 18.8245 32.3718C19.2711 32.1868 19.6529 31.8735 19.9215 31.4715C20.1901 31.0695 20.3334 30.5969 20.3334 30.1135C20.3334 29.4652 20.0759 28.8435 19.6175 28.385C19.1591 27.9266 18.5373 27.6691 17.889 27.6691Z" fill="#C11C3F"/>
<path d="M21.5557 31.3357C21.3502 31.3362 21.1479 31.2849 20.9675 31.1865C20.7872 31.0882 20.6345 30.9459 20.5236 30.7729C20.4128 30.5999 20.3473 30.4018 20.3333 30.1968C20.3193 29.9918 20.3572 29.7866 20.4435 29.6001L27.7766 13.7116C27.9128 13.4166 28.1605 13.1878 28.4654 13.0755C28.7702 12.9632 29.1072 12.9766 29.4022 13.1127C29.6971 13.2489 29.9259 13.4966 30.0382 13.8015C30.1506 14.1063 30.1372 14.4433 30.001 14.7383L22.6679 30.6268C22.5697 30.8389 22.4127 31.0185 22.2156 31.1441C22.0185 31.2698 21.7894 31.3362 21.5557 31.3357Z" fill="#C11C3F"/>
<path d="M30.1109 35.0023C29.144 35.0023 28.1988 34.7155 27.3949 34.1784C26.5909 33.6412 25.9643 32.8776 25.5943 31.9843C25.2243 31.091 25.1275 30.1081 25.3161 29.1597C25.5047 28.2114 25.9704 27.3403 26.6541 26.6566C27.3378 25.9729 28.2089 25.5073 29.1572 25.3186C30.1055 25.13 31.0885 25.2268 31.9818 25.5968C32.8751 25.9669 33.6386 26.5935 34.1758 27.3974C34.713 28.2014 34.9997 29.1466 34.9997 30.1135C34.9997 31.4101 34.4847 32.6535 33.5678 33.5704C32.651 34.4872 31.4075 35.0023 30.1109 35.0023ZM30.1109 27.6691C29.6275 27.6691 29.1549 27.8125 28.7529 28.081C28.3509 28.3496 28.0376 28.7314 27.8526 29.1781C27.6676 29.6247 27.6192 30.1162 27.7135 30.5904C27.8078 31.0645 28.0407 31.5001 28.3825 31.8419C28.7244 32.1838 29.1599 32.4166 29.6341 32.5109C30.1082 32.6052 30.5997 32.5568 31.0464 32.3718C31.493 32.1868 31.8748 31.8735 32.1434 31.4715C32.412 31.0695 32.5553 30.5969 32.5553 30.1135C32.5553 29.4652 32.2978 28.8435 31.8394 28.385C31.381 27.9266 30.7592 27.6691 30.1109 27.6691Z" fill="#C11C3F"/>
<path d="M26.4445 31.3357C26.2107 31.3362 25.9817 31.2698 25.7845 31.1441C25.5874 31.0185 25.4304 30.8389 25.3323 30.6268L17.9991 14.7383C17.9317 14.5922 17.8937 14.4343 17.8873 14.2736C17.8809 14.1128 17.9063 13.9524 17.9619 13.8015C18.0175 13.6505 18.1023 13.512 18.2114 13.3938C18.3206 13.2757 18.4519 13.1802 18.598 13.1127C18.744 13.0453 18.9019 13.0074 19.0627 13.001C19.2234 12.9946 19.3838 13.0199 19.5348 13.0755C19.6857 13.1311 19.8242 13.2159 19.9424 13.3251C20.0606 13.4342 20.1561 13.5656 20.2235 13.7116L27.5567 29.6001C27.643 29.7866 27.6808 29.9918 27.6668 30.1968C27.6528 30.4018 27.5874 30.5999 27.4765 30.7729C27.3657 30.9459 27.213 31.0882 27.0326 31.1865C26.8522 31.2849 26.6499 31.3362 26.4445 31.3357Z" fill="#C11C3F"/>
</svg>
