<svg width="28" height="35" viewBox="0 0 28 35" fill="none" xmlns="http://www.w3.org/2000/svg">
<path d="M14 0C6.01915 0 0 2.74944 0 6.39869V28.5942C0 32.2434 6.01915 35 14 35C21.9808 35 28 32.2506 28 28.5942V6.39869C28 2.74944 21.9808 0 14 0ZM26.2712 21.1957C26.2712 23.3952 21.2329 25.8519 14 25.8519C6.76714 25.8519 1.72883 23.4024 1.72883 21.1957V16.9751C4.07157 18.9319 8.58064 20.203 14 20.203C19.4194 20.203 23.9355 18.9319 26.2712 16.9751V21.1957ZM26.2712 13.7972C26.2712 15.9967 21.2329 18.4534 14 18.4534C6.76714 18.4534 1.72883 16.0039 1.72883 13.7972V9.57662C4.07157 11.5334 8.58064 12.8045 14 12.8045C19.4194 12.8045 23.9355 11.5334 26.2712 9.57662V13.7972ZM14 1.74964C21.2329 1.74964 26.2712 4.19914 26.2712 6.40584C26.2712 8.61253 21.2329 11.062 14 11.062C6.76714 11.062 1.72883 8.61253 1.72883 6.40584C1.72883 4.19914 6.76714 1.74964 14 1.74964ZM14 33.2432C6.76714 33.2432 1.72883 30.7937 1.72883 28.587V24.3665C4.07157 26.3232 8.58064 27.5944 14 27.5944C19.4194 27.5944 23.9355 26.3232 26.2712 24.3665V28.587C26.2712 30.7937 21.2329 33.2432 14 33.2432Z" fill="white"/>
</svg>
