<svg width="34" height="44" viewBox="0 0 34 44" fill="none" xmlns="http://www.w3.org/2000/svg">
<path d="M21.4594 1.78379L21.4594 5.26641L16.9575 5.26641C16.4478 5.26641 16.1081 5.60618 16.1081 6.11583L16.1081 21.1506L12.4556 21.1506L12.4556 17.668C12.4556 16.6487 11.6911 15.8842 10.6718 15.8842L2.09262 15.8842C1.07332 15.8842 0.308837 16.6487 0.308837 17.668L0.308837 26.332C0.308837 27.3514 1.07332 28.1158 2.09262 28.1158L10.7567 28.1158C11.776 28.1158 12.5405 27.3514 12.5405 26.332L12.5405 22.8494L16.1081 22.8494L16.1081 37.8842C16.1081 38.3938 16.4478 38.7336 16.9575 38.7336L21.4594 38.7336L21.4594 42.2162C21.4594 43.2355 22.2239 44 23.2432 44L31.9073 44C32.9266 44 33.6911 43.2355 33.6911 42.2162L33.6911 33.5521C33.6911 32.5328 32.9266 31.7683 31.9073 31.7683L23.2432 31.7683C22.2239 31.7683 21.4594 32.5328 21.4594 33.5521L21.4594 37.0347L17.8069 37.0347L17.8069 22.8494L21.4594 22.8494L21.4594 26.332C21.4594 27.3514 22.2239 28.1158 23.2432 28.1158L31.9073 28.1158C32.9266 28.1158 33.6911 27.3514 33.6911 26.332L33.6911 17.668C33.6911 16.6486 32.9266 15.8842 31.9073 15.8842L23.2432 15.8842C22.2239 15.8842 21.4594 16.6487 21.4594 17.668L21.4594 21.1506L17.8069 21.1506L17.8069 6.96525L21.4594 6.96525L21.4594 10.4479C21.4594 11.4672 22.2239 12.2317 23.2432 12.2317L31.9073 12.2317C32.9266 12.2317 33.6911 11.4672 33.6911 10.4479L33.6911 1.78379C33.6911 0.764479 32.9266 2.38893e-06 31.9073 2.43348e-06L23.2432 2.8122e-06C22.2239 2.85676e-06 21.4594 0.849422 21.4594 1.78379ZM23.2432 33.4672C23.1583 33.5521 23.1583 33.4672 23.2432 33.4672L31.9073 33.4672C31.9922 33.4672 31.9922 33.4672 31.9922 33.5521L31.9922 42.2162C31.9922 42.3012 31.9922 42.3012 31.9073 42.3012L23.2432 42.3012C23.1583 42.3012 23.1583 42.3012 23.1583 42.2162L23.2432 33.4672ZM23.2432 17.583C23.1583 17.668 23.1583 17.583 23.2432 17.583L31.9073 17.583C31.9922 17.583 31.9922 17.583 31.9922 17.668L31.9922 26.332C31.9922 26.417 31.9922 26.417 31.9073 26.417L23.2432 26.417C23.1583 26.417 23.1583 26.417 23.1583 26.332L23.2432 17.583ZM10.6718 26.417C10.7567 26.332 10.7567 26.417 10.6718 26.417L2.09262 26.417C2.00768 26.417 2.00768 26.417 2.00768 26.332L2.00768 17.668C2.00768 17.583 2.00768 17.583 2.09262 17.583L10.7567 17.583C10.8417 17.583 10.8417 17.583 10.8417 17.668L10.6718 26.417ZM31.8223 1.69884C31.9073 1.69884 31.9073 1.78379 31.8223 1.69884L31.9073 10.4479C31.9073 10.5328 31.9073 10.5328 31.8223 10.5328L23.2432 10.5328C23.1583 10.5328 23.1583 10.5328 23.1583 10.4479L23.1583 1.78379C23.1583 1.69884 23.1583 1.69884 23.2432 1.69884L31.8223 1.69884Z" fill="white"/>
</svg>
