<svg width="22" height="22" viewBox="0 0 22 22" fill="none" xmlns="http://www.w3.org/2000/svg">
<path d="M6.41533 14.6672C5.65592 14.6672 5.04028 15.2829 5.04028 16.0423V20.6258C5.04028 21.3852 5.65592 22.0008 6.41533 22.0008C7.17474 22.0008 7.79038 21.3852 7.79038 20.6258V16.0423C7.79038 15.2829 7.17474 14.6672 6.41533 14.6672ZM6.87369 20.6258C6.87369 20.8789 6.66847 21.0842 6.41533 21.0842C6.16219 21.0842 5.95697 20.8789 5.95697 20.6258V16.0423C5.95697 15.7891 6.16219 15.5839 6.41533 15.5839C6.66847 15.5839 6.87369 15.7891 6.87369 16.0423V20.6258Z" fill="black"/>
<path d="M6.8742 12.3755H5.95752V15.1256H6.8742V12.3755Z" fill="black"/>
<path d="M21.5421 14.6672H18.792C17.5269 14.6687 16.5017 15.6939 16.5002 16.959V19.7091C16.5002 19.9622 16.7055 20.1674 16.9586 20.1674C17.0802 20.1674 17.1967 20.1191 17.2826 20.0331L21.8662 15.4496C21.9521 15.3637 22.0003 15.2472 22.0003 15.1257C22.0004 14.8725 21.7952 14.6673 21.5421 14.6672ZM17.4169 18.6026V16.959C17.4169 16.1996 18.0326 15.5839 18.792 15.5839H20.4356L17.4169 18.6026Z" fill="black"/>
<path d="M19.707 0H11.9155V0.916633H19.707C20.4663 0.916633 21.0819 1.53223 21.0819 2.2916V14.9349L16.7673 19.2496H9.16553V20.1662H16.957C17.0786 20.1662 17.1951 20.1179 17.281 20.032L21.8643 15.4487C21.9503 15.3628 21.9986 15.2462 21.9986 15.1247V2.2916C21.9971 1.02663 20.972 0.00150387 19.707 0Z" fill="black"/>
<path d="M6.41687 0.000488281C2.87295 0.000488281 0 2.87344 0 6.41736C0 9.96129 2.87295 12.8342 6.41687 12.8342C9.95926 12.8305 12.83 9.95974 12.8337 6.41736C12.8338 2.87344 9.96084 0.000488281 6.41687 0.000488281ZM6.41687 11.9176C3.37922 11.9176 0.916684 9.45502 0.916684 6.41736C0.916684 3.37971 3.37922 0.917172 6.41687 0.917172C9.45319 0.920438 11.9138 3.38104 11.9171 6.41736C11.9171 9.45506 9.45457 11.9176 6.41687 11.9176Z" fill="black"/>
<path d="M2.74951 6.41678H3.6662C3.6677 4.89855 4.89807 3.66819 6.41629 3.66668V2.75C4.39213 2.75228 2.75179 4.39262 2.74951 6.41678Z" fill="black"/>
</svg>
