<svg width="26" height="28" viewBox="0 0 26 28" fill="none" xmlns="http://www.w3.org/2000/svg">
<path d="M18.2744 12.0312C18.2744 11.4272 17.7847 10.9375 17.1807 10.9375H5.91504C5.31096 10.9375 4.82129 11.4272 4.82129 12.0312C4.82129 12.6353 5.31096 13.125 5.91504 13.125H17.1807C17.7847 13.125 18.2744 12.6353 18.2744 12.0312Z" fill="black"/>
<path d="M5.91504 15.3125C5.31096 15.3125 4.82129 15.8022 4.82129 16.4062C4.82129 17.0103 5.31096 17.5 5.91504 17.5H12.757C13.3611 17.5 13.8508 17.0103 13.8508 16.4062C13.8508 15.8022 13.3611 15.3125 12.757 15.3125H5.91504Z" fill="black"/>
<path d="M8.48563 25.8125H4.82764C3.62145 25.8125 2.64014 24.8312 2.64014 23.625V4.375C2.64014 3.16881 3.62145 2.1875 4.82764 2.1875H18.2747C19.4809 2.1875 20.4622 3.16881 20.4622 4.375V11.1016C20.4622 11.7056 20.9519 12.1953 21.5559 12.1953C22.16 12.1953 22.6497 11.7056 22.6497 11.1016V4.375C22.6497 1.96263 20.6871 0 18.2747 0H4.82764C2.41526 0 0.452637 1.96263 0.452637 4.375V23.625C0.452637 26.0374 2.41526 28 4.82764 28H8.48563C9.08971 28 9.57938 27.5103 9.57938 26.9062C9.57938 26.3022 9.08971 25.8125 8.48563 25.8125Z" fill="black"/>
<path d="M24.5868 15.8359C23.3075 14.5565 21.2258 14.5565 19.9473 15.835L13.9425 21.8266C13.8149 21.9538 13.7209 22.1105 13.6685 22.2829L12.3607 26.5882C12.2448 26.9699 12.3458 27.3844 12.6244 27.6699C12.8331 27.8838 13.1166 27.9999 13.4073 27.9999C13.5046 27.9999 13.6028 27.9869 13.6993 27.9601L18.1139 26.7373C18.2956 26.687 18.4612 26.5905 18.5946 26.4573L24.5869 20.4763C25.8662 19.197 25.8662 17.1153 24.5868 15.8359ZM17.2528 24.706L15.0318 25.3212L15.6818 23.1813L19.7335 19.1386L21.2806 20.6857L17.2528 24.706ZM23.0409 18.9289L22.8289 19.1404L21.2821 17.5935L21.4933 17.3828C21.9198 16.9563 22.6136 16.9563 23.0401 17.3828C23.4666 17.8092 23.4665 18.5031 23.0409 18.9289Z" fill="black"/>
<path d="M17.1807 6.5625H5.91504C5.31096 6.5625 4.82129 7.05217 4.82129 7.65625C4.82129 8.26033 5.31096 8.75 5.91504 8.75H17.1807C17.7847 8.75 18.2744 8.26033 18.2744 7.65625C18.2744 7.05217 17.7847 6.5625 17.1807 6.5625Z" fill="black"/>
</svg>
