<svg width="40" height="48" viewBox="0 0 48 48" fill="none" xmlns="http://www.w3.org/2000/svg">
<rect width="48" height="48" rx="12" fill="white"/>
<rect x="0.5" y="0.5" width="47" height="47" rx="11.5" stroke="black" stroke-opacity="0.1"/>
<mask id="path-3-outside-1" maskUnits="userSpaceOnUse" x="12.4371" y="10" width="23" height="28" fill="black">
<rect fill="white" x="12.4371" y="10" width="23" height="28"/>
<path fill-rule="evenodd" clip-rule="evenodd" d="M17.4997 17.5038C17.2842 17.5038 17.0775 17.4182 16.9252 17.2658C16.7728 17.1135 16.6872 16.9068 16.6872 16.6913V15.8788H15.8747C15.6592 15.8788 15.4525 15.9644 15.3002 16.1168C15.1478 16.2691 15.0622 16.4758 15.0622 16.6913V32.9418C15.0622 33.1573 15.1478 33.364 15.3002 33.5164C15.4525 33.6687 15.6592 33.7543 15.8747 33.7543H23.1874V24.8165C23.1874 24.1701 23.4442 23.55 23.9013 23.0929C24.3584 22.6358 24.9785 22.379 25.6249 22.379H29.6877V16.6913C29.6877 16.4758 29.6021 16.2691 29.4498 16.1168C29.2974 15.9644 29.0907 15.8788 28.8752 15.8788H28.0625V16.6913C28.0625 16.9068 27.9769 17.1135 27.8246 17.2658C27.6722 17.4182 27.4655 17.5038 27.25 17.5038H17.4997ZM18.3123 15.0662L18.3122 15.0765V15.8788H26.4375V15.0663C26.4375 14.8508 26.3519 14.6441 26.1995 14.4917C26.0471 14.3393 25.8405 14.2537 25.625 14.2537H23.9999C23.7844 14.2537 23.5777 14.1681 23.4254 14.0157C23.273 13.8634 23.1874 13.6567 23.1874 13.4412C23.1874 13.2257 23.1018 13.019 22.9494 12.8667C22.797 12.7143 22.5904 12.6287 22.3749 12.6287C22.1594 12.6287 21.9527 12.7143 21.8003 12.8667C21.6479 13.019 21.5623 13.2257 21.5623 13.4412C21.5623 13.6567 21.4767 13.8634 21.3243 14.0157C21.172 14.1681 20.9653 14.2537 20.7498 14.2537H19.1248C18.9093 14.2537 18.7026 14.3393 18.5502 14.4917C18.3995 14.6424 18.3142 14.8461 18.3123 15.059L18.3123 15.0662ZM17.4011 13.3426C17.1416 13.6021 16.9466 13.9142 16.8266 14.2537H15.8747C15.2282 14.2537 14.6082 14.5105 14.1511 14.9677C13.6939 15.4248 13.4371 16.0448 13.4371 16.6913V32.9418C13.4371 33.5883 13.6939 34.2083 14.1511 34.6655C14.6082 35.1226 15.2282 35.3794 15.8747 35.3794H23.3268C23.4468 35.719 23.6418 36.031 23.9013 36.2905C24.3584 36.7476 24.9785 37.0044 25.6249 37.0044H32.1252C32.7716 37.0044 33.3916 36.7476 33.8488 36.2905C34.3059 35.8333 34.5627 35.2133 34.5627 34.5669V24.8165C34.5627 24.1701 34.3059 23.55 33.8488 23.0929C33.3916 22.6358 32.7716 22.379 32.1252 22.379H31.3128V16.6913C31.3128 16.0448 31.056 15.4248 30.5988 14.9677C30.1417 14.5105 29.5217 14.2537 28.8752 14.2537H27.9231C27.8031 13.9142 27.6081 13.6021 27.3486 13.3426C26.8915 12.8855 26.2714 12.6287 25.625 12.6287H24.6743C24.5068 12.1525 24.1956 11.7401 23.7838 11.4484C23.3719 11.1567 22.8796 11 22.3749 11C21.8701 11 21.3778 11.1567 20.966 11.4484C20.5541 11.7401 20.2429 12.1525 20.0754 12.6287H19.1248C18.4783 12.6287 17.8583 12.8855 17.4011 13.3426ZM24.8125 34.5748C24.8145 34.7874 24.8999 34.9909 25.0504 35.1414C25.2028 35.2938 25.4094 35.3794 25.6249 35.3794H32.1252C32.3406 35.3794 32.5473 35.2938 32.6997 35.1414C32.8521 34.989 32.9377 34.7824 32.9377 34.5669V24.8165C32.9377 24.601 32.8521 24.3944 32.6997 24.242C32.5473 24.0896 32.3406 24.004 32.1252 24.004H30.5058L30.5003 24.004L30.4947 24.004H25.6249C25.4094 24.004 25.2028 24.0896 25.0504 24.242C24.898 24.3944 24.8124 24.601 24.8124 24.8165V34.5554L24.8125 34.5669L24.8125 34.5748ZM26.6756 27.0162C26.828 27.1685 27.0347 27.2541 27.2502 27.2541H30.5003C30.7158 27.2541 30.9224 27.1685 31.0748 27.0162C31.2272 26.8638 31.3128 26.6571 31.3128 26.4416C31.3128 26.2261 31.2272 26.0194 31.0748 25.8671C30.9224 25.7147 30.7158 25.6291 30.5003 25.6291H27.2502C27.0347 25.6291 26.828 25.7147 26.6756 25.8671C26.5232 26.0194 26.4376 26.2261 26.4376 26.4416C26.4376 26.6571 26.5232 26.8638 26.6756 27.0162ZM27.2502 30.5043C27.0347 30.5043 26.828 30.4187 26.6756 30.2663C26.5232 30.1139 26.4376 29.9072 26.4376 29.6917C26.4376 29.4762 26.5232 29.2696 26.6756 29.1172C26.828 28.9648 27.0347 28.8792 27.2502 28.8792H30.5003C30.7158 28.8792 30.9224 28.9648 31.0748 29.1172C31.2272 29.2696 31.3128 29.4762 31.3128 29.6917C31.3128 29.9072 31.2272 30.1139 31.0748 30.2663C30.9224 30.4187 30.7158 30.5043 30.5003 30.5043H27.2502ZM27.2502 33.7543H28.8752C29.0907 33.7543 29.2974 33.6687 29.4498 33.5164C29.6021 33.364 29.6877 33.1573 29.6877 32.9418C29.6877 32.7263 29.6021 32.5196 29.4498 32.3673C29.2974 32.2149 29.0907 32.1293 28.8752 32.1293H27.2502C27.0347 32.1293 26.828 32.2149 26.6756 32.3673C26.5232 32.5196 26.4376 32.7263 26.4376 32.9418C26.4376 33.1573 26.5232 33.364 26.6756 33.5164C26.828 33.6687 27.0347 33.7543 27.2502 33.7543Z"/>
</mask>
<path fill-rule="evenodd" clip-rule="evenodd" d="M17.4997 17.5038C17.2842 17.5038 17.0775 17.4182 16.9252 17.2658C16.7728 17.1135 16.6872 16.9068 16.6872 16.6913V15.8788H15.8747C15.6592 15.8788 15.4525 15.9644 15.3002 16.1168C15.1478 16.2691 15.0622 16.4758 15.0622 16.6913V32.9418C15.0622 33.1573 15.1478 33.364 15.3002 33.5164C15.4525 33.6687 15.6592 33.7543 15.8747 33.7543H23.1874V24.8165C23.1874 24.1701 23.4442 23.55 23.9013 23.0929C24.3584 22.6358 24.9785 22.379 25.6249 22.379H29.6877V16.6913C29.6877 16.4758 29.6021 16.2691 29.4498 16.1168C29.2974 15.9644 29.0907 15.8788 28.8752 15.8788H28.0625V16.6913C28.0625 16.9068 27.9769 17.1135 27.8246 17.2658C27.6722 17.4182 27.4655 17.5038 27.25 17.5038H17.4997ZM18.3123 15.0662L18.3122 15.0765V15.8788H26.4375V15.0663C26.4375 14.8508 26.3519 14.6441 26.1995 14.4917C26.0471 14.3393 25.8405 14.2537 25.625 14.2537H23.9999C23.7844 14.2537 23.5777 14.1681 23.4254 14.0157C23.273 13.8634 23.1874 13.6567 23.1874 13.4412C23.1874 13.2257 23.1018 13.019 22.9494 12.8667C22.797 12.7143 22.5904 12.6287 22.3749 12.6287C22.1594 12.6287 21.9527 12.7143 21.8003 12.8667C21.6479 13.019 21.5623 13.2257 21.5623 13.4412C21.5623 13.6567 21.4767 13.8634 21.3243 14.0157C21.172 14.1681 20.9653 14.2537 20.7498 14.2537H19.1248C18.9093 14.2537 18.7026 14.3393 18.5502 14.4917C18.3995 14.6424 18.3142 14.8461 18.3123 15.059L18.3123 15.0662ZM17.4011 13.3426C17.1416 13.6021 16.9466 13.9142 16.8266 14.2537H15.8747C15.2282 14.2537 14.6082 14.5105 14.1511 14.9677C13.6939 15.4248 13.4371 16.0448 13.4371 16.6913V32.9418C13.4371 33.5883 13.6939 34.2083 14.1511 34.6655C14.6082 35.1226 15.2282 35.3794 15.8747 35.3794H23.3268C23.4468 35.719 23.6418 36.031 23.9013 36.2905C24.3584 36.7476 24.9785 37.0044 25.6249 37.0044H32.1252C32.7716 37.0044 33.3916 36.7476 33.8488 36.2905C34.3059 35.8333 34.5627 35.2133 34.5627 34.5669V24.8165C34.5627 24.1701 34.3059 23.55 33.8488 23.0929C33.3916 22.6358 32.7716 22.379 32.1252 22.379H31.3128V16.6913C31.3128 16.0448 31.056 15.4248 30.5988 14.9677C30.1417 14.5105 29.5217 14.2537 28.8752 14.2537H27.9231C27.8031 13.9142 27.6081 13.6021 27.3486 13.3426C26.8915 12.8855 26.2714 12.6287 25.625 12.6287H24.6743C24.5068 12.1525 24.1956 11.7401 23.7838 11.4484C23.3719 11.1567 22.8796 11 22.3749 11C21.8701 11 21.3778 11.1567 20.966 11.4484C20.5541 11.7401 20.2429 12.1525 20.0754 12.6287H19.1248C18.4783 12.6287 17.8583 12.8855 17.4011 13.3426ZM24.8125 34.5748C24.8145 34.7874 24.8999 34.9909 25.0504 35.1414C25.2028 35.2938 25.4094 35.3794 25.6249 35.3794H32.1252C32.3406 35.3794 32.5473 35.2938 32.6997 35.1414C32.8521 34.989 32.9377 34.7824 32.9377 34.5669V24.8165C32.9377 24.601 32.8521 24.3944 32.6997 24.242C32.5473 24.0896 32.3406 24.004 32.1252 24.004H30.5058L30.5003 24.004L30.4947 24.004H25.6249C25.4094 24.004 25.2028 24.0896 25.0504 24.242C24.898 24.3944 24.8124 24.601 24.8124 24.8165V34.5554L24.8125 34.5669L24.8125 34.5748ZM26.6756 27.0162C26.828 27.1685 27.0347 27.2541 27.2502 27.2541H30.5003C30.7158 27.2541 30.9224 27.1685 31.0748 27.0162C31.2272 26.8638 31.3128 26.6571 31.3128 26.4416C31.3128 26.2261 31.2272 26.0194 31.0748 25.8671C30.9224 25.7147 30.7158 25.6291 30.5003 25.6291H27.2502C27.0347 25.6291 26.828 25.7147 26.6756 25.8671C26.5232 26.0194 26.4376 26.2261 26.4376 26.4416C26.4376 26.6571 26.5232 26.8638 26.6756 27.0162ZM27.2502 30.5043C27.0347 30.5043 26.828 30.4187 26.6756 30.2663C26.5232 30.1139 26.4376 29.9072 26.4376 29.6917C26.4376 29.4762 26.5232 29.2696 26.6756 29.1172C26.828 28.9648 27.0347 28.8792 27.2502 28.8792H30.5003C30.7158 28.8792 30.9224 28.9648 31.0748 29.1172C31.2272 29.2696 31.3128 29.4762 31.3128 29.6917C31.3128 29.9072 31.2272 30.1139 31.0748 30.2663C30.9224 30.4187 30.7158 30.5043 30.5003 30.5043H27.2502ZM27.2502 33.7543H28.8752C29.0907 33.7543 29.2974 33.6687 29.4498 33.5164C29.6021 33.364 29.6877 33.1573 29.6877 32.9418C29.6877 32.7263 29.6021 32.5196 29.4498 32.3673C29.2974 32.2149 29.0907 32.1293 28.8752 32.1293H27.2502C27.0347 32.1293 26.828 32.2149 26.6756 32.3673C26.5232 32.5196 26.4376 32.7263 26.4376 32.9418C26.4376 33.1573 26.5232 33.364 26.6756 33.5164C26.828 33.6687 27.0347 33.7543 27.2502 33.7543Z" fill="#C11C3F"/>
<path d="M16.6872 15.8788H16.8872V15.6788H16.6872V15.8788ZM15.3002 16.1168L15.4416 16.2582H15.4416L15.3002 16.1168ZM15.3002 33.5164L15.1587 33.6578L15.1587 33.6578L15.3002 33.5164ZM23.1874 33.7543V33.9543H23.3874V33.7543H23.1874ZM23.9013 23.0929L24.0427 23.2343L23.9013 23.0929ZM29.6877 22.379V22.579H29.8877V22.379H29.6877ZM28.0625 15.8788V15.6788H27.8625V15.8788H28.0625ZM27.8246 17.2658L27.6831 17.1244L27.6831 17.1244L27.8246 17.2658ZM18.3122 15.0765L18.1122 15.0753V15.0765H18.3122ZM18.3123 15.0662L18.5123 15.0675L18.5123 15.0654L18.3123 15.0662ZM18.3122 15.8788H18.1122V16.0788H18.3122V15.8788ZM26.4375 15.8788V16.0788H26.6375V15.8788H26.4375ZM26.1995 14.4917L26.3409 14.3503L26.1995 14.4917ZM23.4254 14.0157L23.2839 14.1572L23.4254 14.0157ZM22.9494 12.8667L22.808 13.0081L22.808 13.0081L22.9494 12.8667ZM21.3243 14.0157L21.4658 14.1572L21.3243 14.0157ZM18.5502 14.4917L18.6916 14.6331V14.6331L18.5502 14.4917ZM18.3123 15.059L18.1122 15.0572L18.1123 15.0599L18.3123 15.059ZM16.8266 14.2537V14.4537H16.968L17.0151 14.3204L16.8266 14.2537ZM17.4011 13.3426L17.5425 13.484L17.4011 13.3426ZM14.1511 14.9677L14.0097 14.8263H14.0097L14.1511 14.9677ZM14.1511 34.6655L14.0097 34.8069L14.1511 34.6655ZM23.3268 35.3794L23.5153 35.3127L23.4682 35.1794H23.3268V35.3794ZM23.9013 36.2905L24.0427 36.1491L23.9013 36.2905ZM33.8488 23.0929L33.7074 23.2343L33.8488 23.0929ZM31.3128 22.379H31.1128V22.579H31.3128V22.379ZM30.5988 14.9677L30.7403 14.8263L30.5988 14.9677ZM27.9231 14.2537L27.7346 14.3204L27.7817 14.4537H27.9231V14.2537ZM27.3486 13.3426L27.49 13.2012V13.2012L27.3486 13.3426ZM24.6743 12.6287L24.4856 12.695L24.5326 12.8287H24.6743V12.6287ZM23.7838 11.4484L23.6682 11.6116L23.7838 11.4484ZM20.966 11.4484L21.0815 11.6116L20.966 11.4484ZM20.0754 12.6287V12.8287H20.2171L20.2641 12.695L20.0754 12.6287ZM25.0504 35.1414L24.909 35.2828L24.909 35.2828L25.0504 35.1414ZM24.8125 34.5748L24.6124 34.5738L24.6125 34.5767L24.8125 34.5748ZM32.6997 35.1414L32.8411 35.2828L32.8411 35.2828L32.6997 35.1414ZM30.5058 24.004V23.804L30.5051 23.804L30.5058 24.004ZM30.5003 24.004L30.4996 24.204L30.5009 24.204L30.5003 24.004ZM30.4947 24.004L30.4954 23.804H30.4947V24.004ZM24.8124 34.5554H24.6124L24.6124 34.5568L24.8124 34.5554ZM24.8125 34.5669L25.0125 34.5678L25.0125 34.5655L24.8125 34.5669ZM26.6756 27.0162L26.817 26.8747V26.8747L26.6756 27.0162ZM31.0748 27.0162L30.9334 26.8747V26.8747L31.0748 27.0162ZM26.6756 29.1172L26.5342 28.9758L26.5342 28.9758L26.6756 29.1172ZM31.0748 29.1172L31.2162 28.9758L31.2162 28.9758L31.0748 29.1172ZM29.4498 32.3673L29.5912 32.2258L29.5912 32.2258L29.4498 32.3673ZM26.6756 32.3673L26.5342 32.2258L26.5342 32.2258L26.6756 32.3673ZM16.7837 17.4073C16.9736 17.5972 17.2312 17.7038 17.4997 17.7038V17.3038C17.3372 17.3038 17.1814 17.2393 17.0666 17.1244L16.7837 17.4073ZM16.4872 16.6913C16.4872 16.9598 16.5939 17.2174 16.7837 17.4073L17.0666 17.1244C16.9517 17.0096 16.8872 16.8538 16.8872 16.6913H16.4872ZM16.4872 15.8788V16.6913H16.8872V15.8788H16.4872ZM15.8747 16.0788H16.6872V15.6788H15.8747V16.0788ZM15.4416 16.2582C15.5565 16.1433 15.7123 16.0788 15.8747 16.0788V15.6788C15.6062 15.6788 15.3486 15.7855 15.1587 15.9753L15.4416 16.2582ZM15.2622 16.6913C15.2622 16.5288 15.3267 16.3731 15.4416 16.2582L15.1587 15.9753C14.9689 16.1652 14.8622 16.4228 14.8622 16.6913H15.2622ZM15.2622 32.9418V16.6913H14.8622V32.9418H15.2622ZM15.4416 33.3749C15.3267 33.2601 15.2622 33.1043 15.2622 32.9418H14.8622C14.8622 33.2104 14.9689 33.4679 15.1587 33.6578L15.4416 33.3749ZM15.8747 33.5543C15.7123 33.5543 15.5565 33.4898 15.4416 33.3749L15.1587 33.6578C15.3486 33.8477 15.6062 33.9543 15.8747 33.9543V33.5543ZM23.1874 33.5543H15.8747V33.9543H23.1874V33.5543ZM22.9874 24.8165V33.7543H23.3874V24.8165H22.9874ZM23.7599 22.9515C23.2653 23.4461 22.9874 24.117 22.9874 24.8165H23.3874C23.3874 24.2231 23.6231 23.654 24.0427 23.2343L23.7599 22.9515ZM25.6249 22.179C24.9254 22.179 24.2545 22.4569 23.7599 22.9515L24.0427 23.2343C24.4624 22.8147 25.0315 22.579 25.6249 22.579V22.179ZM29.6877 22.179H25.6249V22.579H29.6877V22.179ZM29.4877 16.6913V22.379H29.8877V16.6913H29.4877ZM29.3083 16.2582C29.4232 16.3731 29.4877 16.5288 29.4877 16.6913H29.8877C29.8877 16.4228 29.7811 16.1652 29.5912 15.9753L29.3083 16.2582ZM28.8752 16.0788C29.0377 16.0788 29.1935 16.1433 29.3083 16.2582L29.5912 15.9753C29.4013 15.7855 29.1437 15.6788 28.8752 15.6788V16.0788ZM28.0625 16.0788H28.8752V15.6788H28.0625V16.0788ZM28.2625 16.6913V15.8788H27.8625V16.6913H28.2625ZM27.966 17.4073C28.1559 17.2174 28.2625 16.9598 28.2625 16.6913H27.8625C27.8625 16.8538 27.798 17.0096 27.6831 17.1244L27.966 17.4073ZM27.25 17.7038C27.5186 17.7038 27.7761 17.5972 27.966 17.4073L27.6831 17.1244C27.5683 17.2393 27.4125 17.3038 27.25 17.3038V17.7038ZM17.4997 17.7038H27.25V17.3038H17.4997V17.7038ZM18.5122 15.0778L18.5123 15.0675L18.1123 15.065L18.1122 15.0753L18.5122 15.0778ZM18.5122 15.8788V15.0765H18.1122V15.8788H18.5122ZM26.4375 15.6788H18.3122V16.0788H26.4375V15.6788ZM26.2375 15.0663V15.8788H26.6375V15.0663H26.2375ZM26.0581 14.6331C26.173 14.748 26.2375 14.9038 26.2375 15.0663H26.6375C26.6375 14.7977 26.5308 14.5402 26.3409 14.3503L26.0581 14.6331ZM25.625 14.4537C25.7874 14.4537 25.9432 14.5183 26.0581 14.6331L26.3409 14.3503C26.151 14.1604 25.8935 14.0537 25.625 14.0537V14.4537ZM23.9999 14.4537H25.625V14.0537H23.9999V14.4537ZM23.2839 14.1572C23.4738 14.3471 23.7314 14.4537 23.9999 14.4537V14.0537C23.8375 14.0537 23.6817 13.9892 23.5668 13.8743L23.2839 14.1572ZM22.9874 13.4412C22.9874 13.7097 23.0941 13.9673 23.2839 14.1572L23.5668 13.8743C23.4519 13.7595 23.3874 13.6037 23.3874 13.4412H22.9874ZM22.808 13.0081C22.9228 13.123 22.9874 13.2787 22.9874 13.4412H23.3874C23.3874 13.1727 23.2807 12.9151 23.0908 12.7252L22.808 13.0081ZM22.3749 12.8287C22.5373 12.8287 22.6931 12.8932 22.808 13.0081L23.0908 12.7252C22.9009 12.5354 22.6434 12.4287 22.3749 12.4287V12.8287ZM21.9417 13.0081C22.0566 12.8932 22.2124 12.8287 22.3749 12.8287V12.4287C22.1063 12.4287 21.8488 12.5354 21.6589 12.7252L21.9417 13.0081ZM21.7623 13.4412C21.7623 13.2788 21.8269 13.123 21.9417 13.0081L21.6589 12.7252C21.469 12.9151 21.3623 13.1727 21.3623 13.4412H21.7623ZM21.4658 14.1572C21.6557 13.9673 21.7623 13.7097 21.7623 13.4412H21.3623C21.3623 13.6037 21.2978 13.7595 21.1829 13.8743L21.4658 14.1572ZM20.7498 14.4537C21.0183 14.4537 21.2759 14.3471 21.4658 14.1572L21.1829 13.8743C21.0681 13.9892 20.9123 14.0537 20.7498 14.0537V14.4537ZM19.1248 14.4537H20.7498V14.0537H19.1248V14.4537ZM18.6916 14.6331C18.8065 14.5183 18.9623 14.4537 19.1248 14.4537V14.0537C18.8562 14.0537 18.5987 14.1604 18.4088 14.3503L18.6916 14.6331ZM18.5122 15.0608C18.5137 14.9003 18.5781 14.7467 18.6916 14.6331L18.4088 14.3503C18.221 14.538 18.1146 14.7919 18.1123 15.0572L18.5122 15.0608ZM18.5123 15.0654L18.5123 15.0581L18.1123 15.0599L18.1123 15.0671L18.5123 15.0654ZM17.0151 14.3204C17.1254 14.0087 17.3043 13.7223 17.5425 13.484L17.2597 13.2012C16.9789 13.482 16.7679 13.8197 16.638 14.1871L17.0151 14.3204ZM15.8747 14.4537H16.8266V14.0537H15.8747V14.4537ZM14.2925 15.1091C14.7121 14.6895 15.2813 14.4537 15.8747 14.4537V14.0537C15.1752 14.0537 14.5043 14.3316 14.0097 14.8263L14.2925 15.1091ZM13.6371 16.6913C13.6371 16.0979 13.8729 15.5287 14.2925 15.1091L14.0097 14.8263C13.515 15.3209 13.2371 15.9918 13.2371 16.6913H13.6371ZM13.6371 32.9418V16.6913H13.2371V32.9418H13.6371ZM14.2925 34.524C13.8729 34.1044 13.6371 33.5353 13.6371 32.9418H13.2371C13.2371 33.6414 13.515 34.3122 14.0097 34.8069L14.2925 34.524ZM15.8747 35.1794C15.2813 35.1794 14.7121 34.9437 14.2925 34.524L14.0097 34.8069C14.5043 35.3015 15.1752 35.5794 15.8747 35.5794V35.1794ZM23.3268 35.1794H15.8747V35.5794H23.3268V35.1794ZM24.0427 36.1491C23.8045 35.9108 23.6256 35.6244 23.5153 35.3127L23.1382 35.4461C23.2681 35.8135 23.4791 36.1511 23.7599 36.4319L24.0427 36.1491ZM25.6249 36.8044C25.0315 36.8044 24.4624 36.5687 24.0427 36.1491L23.7599 36.4319C24.2545 36.9265 24.9254 37.2044 25.6249 37.2044V36.8044ZM32.1252 36.8044H25.6249V37.2044H32.1252V36.8044ZM33.7074 36.1491C33.2877 36.5687 32.7186 36.8044 32.1252 36.8044V37.2044C32.8247 37.2044 33.4956 36.9265 33.9902 36.4319L33.7074 36.1491ZM34.3627 34.5669C34.3627 35.1603 34.127 35.7294 33.7074 36.1491L33.9902 36.4319C34.4848 35.9373 34.7627 35.2664 34.7627 34.5669H34.3627ZM34.3627 24.8165V34.5669H34.7627V24.8165H34.3627ZM33.7074 23.2343C34.127 23.654 34.3627 24.2231 34.3627 24.8165H34.7627C34.7627 24.117 34.4848 23.4461 33.9902 22.9515L33.7074 23.2343ZM32.1252 22.579C32.7186 22.579 33.2877 22.8147 33.7074 23.2343L33.9902 22.9515C33.4956 22.4569 32.8247 22.179 32.1252 22.179V22.579ZM31.3128 22.579H32.1252V22.179H31.3128V22.579ZM31.1128 16.6913V22.379H31.5128V16.6913H31.1128ZM30.4574 15.1091C30.877 15.5287 31.1128 16.0979 31.1128 16.6913H31.5128C31.5128 15.9918 31.2349 15.3209 30.7403 14.8263L30.4574 15.1091ZM28.8752 14.4537C29.4687 14.4537 30.0378 14.6895 30.4574 15.1091L30.7403 14.8263C30.2456 14.3316 29.5747 14.0537 28.8752 14.0537V14.4537ZM27.9231 14.4537H28.8752V14.0537H27.9231V14.4537ZM27.2072 13.484C27.4454 13.7223 27.6244 14.0087 27.7346 14.3204L28.1117 14.1871C27.9818 13.8197 27.7708 13.482 27.49 13.2012L27.2072 13.484ZM25.625 12.8287C26.2184 12.8287 26.7875 13.0644 27.2072 13.484L27.49 13.2012C26.9954 12.7066 26.3245 12.4287 25.625 12.4287V12.8287ZM24.6743 12.8287H25.625V12.4287H24.6743V12.8287ZM23.6682 11.6116C24.0463 11.8794 24.3319 12.258 24.4856 12.695L24.863 12.5623C24.6817 12.0471 24.345 11.6009 23.8994 11.2852L23.6682 11.6116ZM22.3749 11.2C22.8382 11.2 23.2901 11.3438 23.6682 11.6116L23.8994 11.2852C23.4537 10.9695 22.921 10.8 22.3749 10.8V11.2ZM21.0815 11.6116C21.4596 11.3438 21.9115 11.2 22.3749 11.2V10.8C21.8287 10.8 21.296 10.9695 20.8504 11.2852L21.0815 11.6116ZM20.2641 12.695C20.4178 12.258 20.7035 11.8794 21.0815 11.6116L20.8504 11.2852C20.4047 11.6009 20.068 12.0471 19.8867 12.5623L20.2641 12.695ZM19.1248 12.8287H20.0754V12.4287H19.1248V12.8287ZM17.5425 13.484C17.9622 13.0644 18.5313 12.8287 19.1248 12.8287V12.4287C18.4252 12.4287 17.7543 12.7066 17.2597 13.2012L17.5425 13.484ZM25.1918 35C25.0784 34.8865 25.014 34.7331 25.0125 34.5728L24.6125 34.5767C24.6151 34.8417 24.7214 35.0953 24.909 35.2828L25.1918 35ZM25.6249 35.1794C25.4625 35.1794 25.3067 35.1148 25.1918 35L24.909 35.2828C25.0989 35.4727 25.3564 35.5794 25.6249 35.5794V35.1794ZM32.1252 35.1794H25.6249V35.5794H32.1252V35.1794ZM32.5583 35C32.4434 35.1148 32.2876 35.1794 32.1252 35.1794V35.5794C32.3937 35.5794 32.6512 35.4727 32.8411 35.2828L32.5583 35ZM32.7377 34.5669C32.7377 34.7293 32.6731 34.8851 32.5583 35L32.8411 35.2828C33.031 35.0929 33.1377 34.8354 33.1377 34.5669H32.7377ZM32.7377 24.8165V34.5669H33.1377V24.8165H32.7377ZM32.5583 24.3834C32.6731 24.4983 32.7377 24.6541 32.7377 24.8165H33.1377C33.1377 24.548 33.031 24.2905 32.8411 24.1006L32.5583 24.3834ZM32.1252 24.204C32.2876 24.204 32.4434 24.2686 32.5583 24.3834L32.8411 24.1006C32.6512 23.9107 32.3937 23.804 32.1252 23.804V24.204ZM30.5058 24.204H32.1252V23.804H30.5058V24.204ZM30.5009 24.204L30.5065 24.204L30.5051 23.804L30.4996 23.804L30.5009 24.204ZM30.494 24.204L30.4996 24.204L30.5009 23.804L30.4954 23.804L30.494 24.204ZM25.6249 24.204H30.4947V23.804H25.6249V24.204ZM25.1918 24.3834C25.3067 24.2686 25.4625 24.204 25.6249 24.204V23.804C25.3564 23.804 25.0989 23.9107 24.909 24.1006L25.1918 24.3834ZM25.0124 24.8165C25.0124 24.6541 25.077 24.4983 25.1918 24.3834L24.909 24.1006C24.7191 24.2905 24.6124 24.548 24.6124 24.8165H25.0124ZM25.0124 34.5554V24.8165H24.6124V34.5554H25.0124ZM25.0125 34.5655L25.0124 34.554L24.6124 34.5568L24.6125 34.5683L25.0125 34.5655ZM25.0125 34.5758L25.0125 34.5678L24.6125 34.5659L24.6125 34.5738L25.0125 34.5758ZM27.2502 27.0541C27.0877 27.0541 26.9319 26.9896 26.817 26.8747L26.5342 27.1576C26.7241 27.3475 26.9816 27.4541 27.2502 27.4541V27.0541ZM30.5003 27.0541H27.2502V27.4541H30.5003V27.0541ZM30.9334 26.8747C30.8185 26.9896 30.6627 27.0541 30.5003 27.0541V27.4541C30.7688 27.4541 31.0263 27.3475 31.2162 27.1576L30.9334 26.8747ZM31.1128 26.4416C31.1128 26.6041 31.0483 26.7599 30.9334 26.8747L31.2162 27.1576C31.4061 26.9677 31.5128 26.7102 31.5128 26.4416H31.1128ZM30.9334 26.0085C31.0483 26.1234 31.1128 26.2792 31.1128 26.4416H31.5128C31.5128 26.1731 31.4061 25.9155 31.2162 25.7256L30.9334 26.0085ZM30.5003 25.8291C30.6627 25.8291 30.8185 25.8936 30.9334 26.0085L31.2162 25.7256C31.0263 25.5358 30.7688 25.4291 30.5003 25.4291V25.8291ZM27.2502 25.8291H30.5003V25.4291H27.2502V25.8291ZM26.817 26.0085C26.9319 25.8936 27.0877 25.8291 27.2502 25.8291V25.4291C26.9816 25.4291 26.7241 25.5358 26.5342 25.7256L26.817 26.0085ZM26.6376 26.4416C26.6376 26.2792 26.7022 26.1234 26.817 26.0085L26.5342 25.7256C26.3443 25.9155 26.2376 26.1731 26.2376 26.4416H26.6376ZM26.817 26.8747C26.7022 26.7599 26.6376 26.6041 26.6376 26.4416H26.2376C26.2376 26.7102 26.3443 26.9677 26.5342 27.1576L26.817 26.8747ZM26.5342 30.4077C26.7241 30.5976 26.9816 30.7043 27.2502 30.7043V30.3043C27.0877 30.3043 26.9319 30.2397 26.817 30.1249L26.5342 30.4077ZM26.2376 29.6917C26.2376 29.9603 26.3443 30.2178 26.5342 30.4077L26.817 30.1249C26.7022 30.01 26.6376 29.8542 26.6376 29.6917H26.2376ZM26.5342 28.9758C26.3443 29.1657 26.2376 29.4232 26.2376 29.6917H26.6376C26.6376 29.5293 26.7022 29.3735 26.817 29.2586L26.5342 28.9758ZM27.2502 28.6792C26.9816 28.6792 26.7241 28.7859 26.5342 28.9758L26.817 29.2586C26.9319 29.1437 27.0877 29.0792 27.2502 29.0792V28.6792ZM30.5003 28.6792H27.2502V29.0792H30.5003V28.6792ZM31.2162 28.9758C31.0263 28.7859 30.7688 28.6792 30.5003 28.6792V29.0792C30.6627 29.0792 30.8185 29.1437 30.9334 29.2586L31.2162 28.9758ZM31.5128 29.6917C31.5128 29.4232 31.4061 29.1657 31.2162 28.9758L30.9334 29.2586C31.0483 29.3735 31.1128 29.5293 31.1128 29.6917H31.5128ZM31.2162 30.4077C31.4061 30.2178 31.5128 29.9603 31.5128 29.6917H31.1128C31.1128 29.8542 31.0483 30.01 30.9334 30.1249L31.2162 30.4077ZM30.5003 30.7043C30.7688 30.7043 31.0263 30.5976 31.2162 30.4077L30.9334 30.1249C30.8185 30.2397 30.6627 30.3043 30.5003 30.3043V30.7043ZM27.2502 30.7043H30.5003V30.3043H27.2502V30.7043ZM28.8752 33.5543H27.2502V33.9543H28.8752V33.5543ZM29.3083 33.3749C29.1935 33.4898 29.0377 33.5543 28.8752 33.5543V33.9543C29.1437 33.9543 29.4013 33.8477 29.5912 33.6578L29.3083 33.3749ZM29.4877 32.9418C29.4877 33.1043 29.4232 33.2601 29.3083 33.3749L29.5912 33.6578C29.7811 33.4679 29.8877 33.2103 29.8877 32.9418H29.4877ZM29.3083 32.5087C29.4232 32.6236 29.4877 32.7794 29.4877 32.9418H29.8877C29.8877 32.6733 29.7811 32.4157 29.5912 32.2258L29.3083 32.5087ZM28.8752 32.3293C29.0377 32.3293 29.1935 32.3938 29.3083 32.5087L29.5912 32.2258C29.4013 32.036 29.1437 31.9293 28.8752 31.9293V32.3293ZM27.2502 32.3293H28.8752V31.9293H27.2502V32.3293ZM26.817 32.5087C26.9319 32.3938 27.0877 32.3293 27.2502 32.3293V31.9293C26.9816 31.9293 26.7241 32.036 26.5342 32.2258L26.817 32.5087ZM26.6376 32.9418C26.6376 32.7794 26.7022 32.6236 26.817 32.5087L26.5342 32.2258C26.3443 32.4157 26.2376 32.6733 26.2376 32.9418H26.6376ZM26.817 33.3749C26.7022 33.2601 26.6376 33.1043 26.6376 32.9418H26.2376C26.2376 33.2103 26.3443 33.4679 26.5342 33.6578L26.817 33.3749ZM27.2502 33.5543C27.0877 33.5543 26.9319 33.4898 26.817 33.3749L26.5342 33.6578C26.7241 33.8477 26.9816 33.9543 27.2502 33.9543V33.5543Z" fill="#C11C3F" mask="url(#path-3-outside-1)"/>
</svg>
