<svg width="40" height="48" viewBox="0 0 48 48" fill="none" xmlns="http://www.w3.org/2000/svg">
<rect width="48" height="48" rx="12" fill="white"/>
<rect x="0.5" y="0.5" width="47" height="47" rx="11.5" stroke="black" stroke-opacity="0.1"/>
<path d="M14 27.1978C14 32.2457 18.1072 36.3526 23.1548 36.3526H26.3954C26.9324 36.3526 27.3676 35.9174 27.3676 35.3804V35.0563C27.3676 34.5193 26.9325 34.0841 26.3954 34.0841H23.1548C19.3578 34.0841 16.2685 30.9948 16.2685 27.1978C16.2685 23.4008 19.3578 20.3115 23.1548 20.3115H29.1336L25.016 24.429C24.5737 24.8711 24.5737 25.5908 25.016 26.0329C25.4451 26.4617 26.192 26.4611 26.6201 26.0329L32.6736 19.9793C32.8878 19.7651 33.0059 19.4802 33.0059 19.1772C33.0059 18.8744 32.8878 18.5894 32.6736 18.3752L26.6198 12.3214C26.1916 11.8929 25.4442 11.8929 25.0159 12.3214C24.5737 12.7633 24.5737 13.4832 25.0159 13.9251L29.1335 18.043H23.1548C18.1072 18.043 14 22.1499 14 27.1978Z" fill="#C11C3F"/>
</svg>
