<svg width="40" height="48" viewBox="0 0 48 48" fill="none" xmlns="http://www.w3.org/2000/svg">
<rect width="48" height="48" rx="12" fill="white"/>
<rect x="0.5" y="0.5" width="47" height="47" rx="11.5" stroke="black" stroke-opacity="0.1"/>
<path d="M33.0058 27.1978C33.0058 32.2457 28.8987 36.3526 23.8511 36.3526H20.6104C20.0734 36.3526 19.6382 35.9174 19.6382 35.3804V35.0563C19.6382 34.5193 20.0734 34.0841 20.6104 34.0841H23.8511C27.648 34.0841 30.7374 30.9948 30.7374 27.1978C30.7374 23.4008 27.648 20.3115 23.8511 20.3115H17.8723L21.9899 24.429C22.4321 24.8711 22.4321 25.5908 21.9899 26.0329C21.5607 26.4617 20.8139 26.4611 20.3857 26.0329L14.3323 19.9793C14.1181 19.7651 14 19.4802 14 19.1772C14 18.8744 14.1181 18.5894 14.3323 18.3752L20.3861 12.3214C20.8142 11.8929 21.5617 11.8929 21.9899 12.3214C22.4322 12.7633 22.4322 13.4832 21.9899 13.9251L17.8724 18.043H23.8511C28.8987 18.043 33.0058 22.1499 33.0058 27.1978Z" fill="#C11C3F" stroke="#C113F" stroke-width="2.5"/>
</svg>
