<svg id="noun_component_3857151" xmlns="http://www.w3.org/2000/svg" width="22.345" height="22.345" viewBox="0 0 22.345 22.345">
  <path id="Caminho_24" data-name="Caminho 24" d="M21.394,13.708a1.624,1.624,0,0,0-1.743.249c-.039.035-.1-.013-.1-.056V8.444a.764.764,0,0,0-.764-.763.747.747,0,0,0-.5.185.93.93,0,1,1,0-1.418.747.747,0,0,0,.5.185.764.764,0,0,0,.764-.763V3.142a.349.349,0,0,0-.349-.349H16.475c-.042,0-.091-.06-.056-.1a1.628,1.628,0,1,0-2.462,0c.035.039-.013.1-.056.1H8.445a.764.764,0,0,0-.763.763.746.746,0,0,0,.185.5.93.93,0,1,1-1.418,0,.747.747,0,0,0,.185-.5.764.764,0,0,0-.763-.763H3.142a.349.349,0,0,0-.349.349V5.87a.065.065,0,0,1-.065.065.055.055,0,0,1-.034-.009,1.628,1.628,0,1,0,0,2.463.054.054,0,0,1,.034-.009.065.065,0,0,1,.065.065V13.9a.764.764,0,0,0,.763.763.747.747,0,0,0,.5-.185.93.93,0,1,1,0,1.418.747.747,0,0,0-.5-.185.764.764,0,0,0-.763.763V19.2a.349.349,0,0,0,.349.349H5.87a.065.065,0,0,1,.065.065.056.056,0,0,1-.009.034,1.628,1.628,0,1,0,2.462,0,.056.056,0,0,1-.009-.034.065.065,0,0,1,.065-.065H13.9a.764.764,0,0,0,.763-.763.746.746,0,0,0-.185-.5.93.93,0,1,1,1.418,0,.747.747,0,0,0-.185.5.764.764,0,0,0,.763.763H19.2a.349.349,0,0,0,.349-.349V16.475c0-.043.06-.091.1-.056a1.628,1.628,0,1,0,1.743-2.711ZM8.379,10.758a.055.055,0,0,1,.009-.034,1.628,1.628,0,1,0-2.462,0,.056.056,0,0,1,.009.034.065.065,0,0,1-.065.065H3.491V8.444a.764.764,0,0,0-.763-.763.747.747,0,0,0-.5.185.93.93,0,1,1,0-1.418.747.747,0,0,0,.5.185.764.764,0,0,0,.763-.763V3.491H5.87a.065.065,0,0,1,.065.065.055.055,0,0,1-.009.034,1.628,1.628,0,1,0,2.462,0,.056.056,0,0,1-.009-.034.065.065,0,0,1,.065-.065h2.379V5.87a.764.764,0,0,0,.763.763c.347,0,.528-.283.838-.371a.992.992,0,0,1,.652.051.943.943,0,0,1,.092,1.639.957.957,0,0,1-.8.079c-.2-.069-.327-.23-.518-.3a.765.765,0,0,0-1.031.716v2.379H8.445a.065.065,0,0,1-.065-.065Zm12.728,5.273a.925.925,0,0,1-.993-.135.747.747,0,0,0-.5-.185.764.764,0,0,0-.764.763v2.379H16.475c-.042,0-.091-.06-.056-.1a1.628,1.628,0,1,0-2.462,0c.034.039-.013.1-.056.1H11.522V16.475a.764.764,0,0,0-.763-.763.747.747,0,0,0-.5.185.93.93,0,1,1,0-1.418.747.747,0,0,0,.5.185.764.764,0,0,0,.763-.763V11.522H13.9c.043,0,.091.06.056.1a1.628,1.628,0,1,0,2.462,0c-.034-.039.013-.1.056-.1h2.379V13.9a.764.764,0,0,0,.764.763.747.747,0,0,0,.5-.185.93.93,0,1,1,.993,1.552Z" transform="translate(0 0)" fill="#FFFFFF"/>
</svg>
