<svg id="noun_transform_3922618" xmlns="http://www.w3.org/2000/svg" width="22.002" height="22.002" viewBox="0 0 22.002 22.002">
  <path id="Caminho_14" data-name="Caminho 14" d="M23,4a2.993,2.993,0,0,0-5.816-1H14.816A2.982,2.982,0,0,0,9.184,3H6.816A2.993,2.993,0,1,0,3,6.816V9.184a2.982,2.982,0,0,0,0,5.632v2.368A2.993,2.993,0,1,0,6.816,21H9.184a2.982,2.982,0,0,0,5.632,0h2.368A2.993,2.993,0,1,0,21,17.184V14.816a2.982,2.982,0,0,0,0-5.632V6.816A3,3,0,0,0,23,4ZM20,3a1,1,0,1,1-1,1A1,1,0,0,1,20,3Zm-3,9a3,3,0,0,0,2,2.816v2.368A3,3,0,0,0,17.184,19H14.816a2.982,2.982,0,0,0-5.632,0H6.816A3,3,0,0,0,5,17.184V14.816A2.982,2.982,0,0,0,5,9.184V6.816A3,3,0,0,0,6.816,5H9.184a2.982,2.982,0,0,0,5.632,0h2.368A3,3,0,0,0,19,6.816V9.184A3,3,0,0,0,17,12ZM12,3a1,1,0,1,1-1,1A1,1,0,0,1,12,3ZM4,3A1,1,0,1,1,3,4,1,1,0,0,1,4,3Zm0,8a1,1,0,1,1-1,1A1,1,0,0,1,4,11ZM4,21a1,1,0,1,1,1-1A1,1,0,0,1,4,21Zm8,0a1,1,0,1,1,1-1A1,1,0,0,1,12,21Zm8,0a1,1,0,1,1,1-1A1,1,0,0,1,20,21Zm0-8a1,1,0,1,1,1-1A1,1,0,0,1,20,13Z" transform="translate(-0.999 -0.999)" fill="#FFFFFF"/>
  <circle id="Elipse_2" data-name="Elipse 2" cx="2" cy="2" r="2" transform="translate(9 9.439)" fill="#FFFFFF"/>
</svg>
