<svg id="noun_data_visualization_1941309" data-name="noun_data visualization_1941309" xmlns="http://www.w3.org/2000/svg" width="26.073" height="26.073" viewBox="0 0 26.073 26.073">
  <g id="Grupo_43" data-name="Grupo 43">
    <path id="Caminho_47" data-name="Caminho 47" d="M16.6,40.726a7.262,7.262,0,0,1-2.7,0v1.025H13v1.8h.9v4.945a1.349,1.349,0,1,0,2.7,0V43.55h.9v-1.8h-.9Z" transform="translate(-8.505 -23.77)" fill="#FFFFFF"/>
    <path id="Caminho_48" data-name="Caminho 48" d="M54.195,34.623a4.015,4.015,0,0,1,0,4.841,7.65,7.65,0,0,0,2.88-2.33l.067-.09-.067-.09A7.653,7.653,0,0,0,54.195,34.623Z" transform="translate(-31.181 -20.41)" fill="#FFFFFF"/>
    <path id="Caminho_49" data-name="Caminho 49" d="M33.317,36.953l-.067.09.067.09a7.65,7.65,0,0,0,2.88,2.33,4.015,4.015,0,0,1,0-4.841A7.653,7.653,0,0,0,33.317,36.953Z" transform="translate(-19.651 -20.41)" fill="#FFFFFF"/>
    <circle id="Elipse_5" data-name="Elipse 5" cx="1.5" cy="1.5" r="1.5" transform="translate(18.037 15.037)" fill="#FFFFFF"/>
    <path id="Caminho_50" data-name="Caminho 50" d="M43.147,33.007a3.147,3.147,0,1,0,3.147,3.147A3.151,3.151,0,0,0,43.147,33.007Zm0,5.394a2.248,2.248,0,1,1,2.248-2.248A2.25,2.25,0,0,1,43.147,38.4Z" transform="translate(-23.367 -19.521)" fill="#FFFFFF"/>
    <path id="Caminho_51" data-name="Caminho 51" d="M11.945,13.007a4.945,4.945,0,1,0,4.945,4.945A4.951,4.951,0,0,0,11.945,13.007ZM8.8,18.4H7.9v-.9h.9Zm1.8,0H9.7v-.9h.9Zm1.8,0h-.9v-.9h.9Zm1.8,0h-.9v-.9h.9Zm1.8,0h-.9v-.9h.9Z" transform="translate(-5.202 -8.512)" fill="#FFFFFF"/>
    <path id="Caminho_52" data-name="Caminho 52" d="M9.743,9.007a6.743,6.743,0,1,0,6.743,6.743A6.751,6.751,0,0,0,9.743,9.007Zm0,12.587a5.844,5.844,0,1,1,5.844-5.844A5.851,5.851,0,0,1,9.743,21.594Z" transform="translate(-3 -6.31)" fill="#FFFFFF"/>
    <path id="Caminho_53" data-name="Caminho 53" d="M45.789,11.1V3.007h-1.8V11.1h-.9V4.356h-1.8V11.1h-.9V6.154H38.6V11.1h-.9V7.952H35.9V11.1H35V12H46.688v-.9Z" transform="translate(-20.615 -3.007)" fill="#FFFFFF"/>
  </g>
</svg>
