<svg id="noun_Data_3074946" xmlns="http://www.w3.org/2000/svg" width="14.708" height="20.842" viewBox="0 0 14.708 20.842">
  <g id="Grupo_6" data-name="Grupo 6">
    <ellipse id="Elipse_1" data-name="Elipse 1" cx="7" cy="2" rx="7" ry="2" transform="translate(0.354)" fill="#FFFFFF"/>
    <path id="Caminho_11" data-name="Caminho 11" d="M31.354,50.954c4.758,0,7.354-1.213,7.354-1.839v-4.1c-1.547.928-4.463,1.409-7.354,1.409S25.547,45.948,24,45.02v4.1C24,49.741,26.6,50.954,31.354,50.954Zm5.671-3.96a.849.849,0,1,1-.843.854A.847.847,0,0,1,37.025,46.994Z" transform="translate(-24 -35.769)" fill="#FFFFFF"/>
    <path id="Caminho_12" data-name="Caminho 12" d="M31.354,70.954c4.758,0,7.354-1.213,7.354-1.839v-4.1c-1.547.928-4.463,1.409-7.354,1.409S25.547,65.948,24,65.02v4.1C24,69.741,26.6,70.954,31.354,70.954Zm5.671-3.96a.849.849,0,1,1-.843.854A.847.847,0,0,1,37.025,66.994Z" transform="translate(-24 -50.112)" fill="#FFFFFF"/>
    <path id="Caminho_13" data-name="Caminho 13" d="M31.354,30.954c4.758,0,7.354-1.213,7.354-1.839v-4.1c-1.547.928-4.463,1.409-7.354,1.409S25.547,25.948,24,25.02v4.1C24,29.741,26.6,30.954,31.354,30.954Zm5.629-3.96a.849.849,0,1,1-.843.854A.847.847,0,0,1,36.983,26.994Z" transform="translate(-24 -21.426)" fill="#FFFFFF"/>
  </g>
</svg>
