<svg id="noun_analysis_2775774" xmlns="http://www.w3.org/2000/svg" width="26.073" height="25.188" viewBox="0 0 26.073 25.188">
  <g id="Grupo_44" data-name="Grupo 44">
    <rect id="Retângulo_1" data-name="Retângulo 1" width="0.841" height="0.841" transform="translate(25.232 24.347)" fill="#FFFFFF"/>
    <rect id="Retângulo_2" data-name="Retângulo 2" width="0.841" height="0.841" transform="translate(0 24.347)" fill="#FFFFFF"/>
    <path id="Caminho_54" data-name="Caminho 54" d="M13.8,33a1.065,1.065,0,0,0-1.054.893l-.54,3.239a2.057,2.057,0,0,0,.519-.277,2.418,2.418,0,0,1,1.5-.491,2.3,2.3,0,0,1,1.117.261L14.859,33.9A1.067,1.067,0,0,0,13.8,33Z" transform="translate(-7.495 -20.428)" fill="#FFFFFF"/>
    <path id="Caminho_55" data-name="Caminho 55" d="M28.679,29a1.082,1.082,0,0,0-1.067.895l-.618,3.5a1.461,1.461,0,0,0,.842.23,1.59,1.59,0,0,0,1.029-.35,2.433,2.433,0,0,1,1.391-.487l-.511-2.895A1.082,1.082,0,0,0,28.679,29Z" transform="translate(-16.063 -18.11)" fill="#FFFFFF"/>
    <path id="Caminho_56" data-name="Caminho 56" d="M24.369,32.1a1.816,1.816,0,0,0-.633.308,2.416,2.416,0,0,1-1.5.491,2.315,2.315,0,0,1-1.338-.389L19.289,43.842l-1.63-8.417c-.015,0-.028,0-.044,0a1.59,1.59,0,0,0-1.029.35,2.418,2.418,0,0,1-1.5.491,2.337,2.337,0,0,1-1-.2l-1.469,8.135L11.359,37.21c-.1-.058-.2-.118-.285-.177a1.686,1.686,0,0,0-2.057,0,2.485,2.485,0,0,1-1.133.466L6.758,44.253H5v.841H27.709v-.841H25.968Zm.356,9.155-.834.11-.111-.841.834-.11Zm-1-7.569.775,5.888-.834.11L22.9,33.795ZM8.463,39.137l.83.138-.138.83-.83-.138ZM8.186,40.8l.83.138-.138.83-.83-.138ZM7.91,42.456l.83.138-.138.83-.83-.138Z" transform="translate(-3.318 -19.906)" fill="#FFFFFF"/>
    <path id="Caminho_57" data-name="Caminho 57" d="M44.739,25a1.5,1.5,0,0,0-1.486,1.3l-.152,1.17c.066.041.129.082.19.123a1.686,1.686,0,0,0,2.056,0,2.549,2.549,0,0,1,.989-.445l-.111-.846A1.5,1.5,0,0,0,44.739,25Z" transform="translate(-25.396 -15.792)" fill="#FFFFFF"/>
    <path id="Caminho_58" data-name="Caminho 58" d="M11.425,13.413l4.626-4.205,2.116,2.116,7.149-5.888.9.9L26.506,3.1,23.277,3.4l1.162,1.161-5.9,4.959-2.1-2.1-5.046,4.205-2.1-2.1L3,15.026v1.826l6.327-5.536Z" transform="translate(-2.159 -3.104)" fill="#FFFFFF"/>
    <rect id="Retângulo_3" data-name="Retângulo 3" width="0.841" height="0.841" transform="translate(17.279 2.331) rotate(-40.405)" fill="#FFFFFF"/>
    <rect id="Retângulo_4" data-name="Retângulo 4" width="0.841" height="0.841" transform="matrix(0.762, -0.648, 0.648, 0.762, 15.996, 3.421)" fill="#FFFFFF"/>
    <rect id="Retângulo_5" data-name="Retângulo 5" width="0.841" height="0.841" transform="matrix(0.762, -0.648, 0.648, 0.762, 18.559, 1.241)" fill="#FFFFFF"/>
    <rect id="Retângulo_6" data-name="Retângulo 6" width="0.841" height="0.841" transform="translate(10.359 4.254) rotate(-40.271)" fill="#FFFFFF"/>
    <rect id="Retângulo_7" data-name="Retângulo 7" width="0.841" height="0.841" transform="translate(11.643 3.168) rotate(-40.271)" fill="#FFFFFF"/>
    <rect id="Retângulo_8" data-name="Retângulo 8" width="0.841" height="0.841" transform="translate(9.075 5.341) rotate(-40.271)" fill="#FFFFFF"/>
    <rect id="Retângulo_9" data-name="Retângulo 9" width="0.841" height="0.841" transform="matrix(0.753, -0.658, 0.658, 0.753, 2.247, 7.34)" fill="#FFFFFF"/>
    <rect id="Retângulo_10" data-name="Retângulo 10" width="0.841" height="0.841" transform="matrix(0.753, -0.658, 0.658, 0.753, 3.513, 6.232)" fill="#FFFFFF"/>
    <rect id="Retângulo_11" data-name="Retângulo 11" width="0.841" height="0.841" transform="matrix(0.753, -0.658, 0.658, 0.753, 4.778, 5.125)" fill="#FFFFFF"/>
  </g>
</svg>
