<svg id="noun_Machine_Learning_2475226" data-name="noun_Machine Learning_2475226" xmlns="http://www.w3.org/2000/svg" width="20.616" height="20.266" viewBox="0 0 20.616 20.266">
  <path id="Caminho_22" data-name="Caminho 22" d="M9.053,13.94H5.7l-1.4,1.4H4.032a1.048,1.048,0,1,0,0,.7h.558l1.4-1.4H9.053a1.038,1.038,0,0,0,1.674.433l1.424.792a1.035,1.035,0,0,0-.017.172,1.048,1.048,0,1,0,2.1,0,1.035,1.035,0,0,0-.017-.172l1.424-.792a1.045,1.045,0,1,0,1.04-1.767V11.779a1.045,1.045,0,1,0-1.04-1.767L14.212,9.22a1.027,1.027,0,0,0,.017-.172,1.048,1.048,0,1,0-2.1,0,1.035,1.035,0,0,0,.017.172l-1.424.792a1.038,1.038,0,0,0-1.674.433H5.988l-1.4-1.4H4.032a1.048,1.048,0,1,0,0,.7H4.3l1.4,1.4H9.053a1.047,1.047,0,0,0,.635.635v.414H4.032a1.048,1.048,0,1,0,0,.7H9.687v.414A1.047,1.047,0,0,0,9.053,13.94Zm-6,2.1a.349.349,0,1,1,.349-.349A.35.35,0,0,1,3.048,16.037Zm0-6.29A.349.349,0,1,1,3.4,9.4.35.35,0,0,1,3.048,9.747Zm0,3.145a.349.349,0,1,1,.349-.349A.35.35,0,0,1,3.048,12.892Zm6.988,1.747a.349.349,0,1,1,.349-.349A.35.35,0,0,1,10.037,14.639Zm.69-3.061,1.424.792a.858.858,0,0,0,0,.345l-1.424.792a1.05,1.05,0,0,0-.341-.2V11.779A1.034,1.034,0,0,0,10.727,11.578Zm4.909,1.929-1.424-.792a.858.858,0,0,0,0-.345l1.424-.792a1.05,1.05,0,0,0,.341.2v1.527A1.034,1.034,0,0,0,15.636,13.507Zm-4.569.61,1.424-.792a1.05,1.05,0,0,0,.341.2v1.527a1.04,1.04,0,0,0-.341.2l-1.424-.792a.86.86,0,0,0,0-.345Zm2.114-1.924a.349.349,0,1,1-.349.349A.35.35,0,0,1,13.181,12.193Zm.349,1.333a1.04,1.04,0,0,0,.341-.2l1.424.792a.858.858,0,0,0,0,.345l-1.424.792a1.05,1.05,0,0,0-.341-.2ZM15.3,10.968l-1.424.792a1.05,1.05,0,0,0-.341-.2V10.032a1.04,1.04,0,0,0,.341-.2l1.424.792a.86.86,0,0,0,0,.345Zm-2.463.591a1.04,1.04,0,0,0-.341.2l-1.424-.792a.858.858,0,0,0,0-.345l1.424-.792a1.05,1.05,0,0,0,.341.2Zm.349,4.828a.349.349,0,1,1,.349-.349A.35.35,0,0,1,13.181,16.386Zm3.145-1.747a.349.349,0,1,1,.349-.349A.35.35,0,0,1,16.326,14.639Zm0-4.193a.349.349,0,1,1-.349.349A.35.35,0,0,1,16.326,10.446ZM13.181,8.7a.349.349,0,1,1-.349.349A.35.35,0,0,1,13.181,8.7Zm-3.145,1.747a.349.349,0,1,1-.349.349A.35.35,0,0,1,10.037,10.446Z" transform="translate(-2 -6.253)" fill="#FFFFFF"/>
  <path id="Caminho_23" data-name="Caminho 23" d="M26.042,17.326h1.4v-1.4h2.8l-1.747-5.591-.008.01A7.493,7.493,0,0,0,14.651,6.494h1.722a5.242,5.242,0,1,1,.242,5.94h-2.9a7.437,7.437,0,0,0,.839,1.967,15.762,15.762,0,0,1,2.407,8.178v.687h5.591v-2.8H27.44V18.025h-1.4A1.749,1.749,0,0,1,24.3,16.278h.7A1.05,1.05,0,0,0,26.042,17.326Z" transform="translate(-9.62 -3)" fill="#FFFFFF"/>
</svg>
