<?xml version="1.0" standalone="no"?>
<!DOCTYPE svg PUBLIC "-//W3C//DTD SVG 20010904//EN"
 "http://www.w3.org/TR/2001/REC-SVG-20010904/DTD/svg10.dtd">
<svg version="1.0" xmlns="http://www.w3.org/2000/svg"
 width="256.000000pt" height="256.000000pt" viewBox="0 0 256.000000 256.000000"
 preserveAspectRatio="xMidYMid meet">
<metadata>
Created by potrace 1.16, written by Peter Selinger 2001-2019
</metadata>
<g transform="translate(0.000000,256.000000) scale(0.100000,-0.100000)"
fill="#000000" stroke="none">
<path d="M732 2533 c302 -2 794 -2 1095 0 302 1 55 2 -547 2 -602 0 -849 -1
-548 -2z"/>
<path d="M163 2517 c7 -5 3 -7 -11 -4 -14 3 -20 1 -15 -6 4 -6 0 -8 -9 -4 -10
3 -28 -8 -49 -30 -19 -20 -28 -33 -21 -29 15 9 15 10 -3 -39 -21 -60 -21
-1740 0 -1800 18 -49 18 -48 3 -39 -7 4 2 -9 21 -29 21 -22 39 -33 49 -30 9 4
13 2 9 -4 -3 -5 2 -9 11 -9 9 0 68 -1 130 -2 l112 -2 0 -209 c0 -206 0 -210
22 -225 12 -9 29 -16 37 -16 8 0 130 115 271 255 l256 255 28 -29 c15 -16 26
-33 24 -38 -1 -4 303 -8 677 -8 l680 0 -680 5 -680 5 677 3 c448 1 686 6 705
13 15 5 41 22 57 37 16 15 25 20 21 12 -8 -13 -7 -13 8 -1 18 15 23 26 7 16
-13 -8 -13 -8 5 40 21 60 21 1740 0 1800 -18 49 -18 48 -2 39 6 -4 -3 9 -22
29 -21 22 -39 33 -49 30 -9 -4 -13 -2 -9 4 5 7 -1 9 -15 6 -14 -3 -18 -1 -11
4 6 4 -497 8 -1117 8 -620 0 -1123 -4 -1117 -8z m1613 -373 c124 -46 126 -47
144 -89 33 -76 101 -297 125 -405 46 -200 77 -481 61 -544 -5 -22 -34 -40
-189 -117 -213 -107 -223 -111 -264 -94 -25 11 -34 23 -45 62 l-14 48 76 21
c121 34 159 53 167 82 3 14 2 32 -4 40 -22 35 -39 36 -130 9 -166 -51 -228
-60 -403 -61 -175 0 -317 20 -445 64 -72 25 -97 25 -119 1 -25 -27 -16 -90 15
-107 13 -7 31 -13 39 -13 8 0 -3 8 -25 19 -22 11 -33 18 -25 16 8 -3 51 -16
95 -29 44 -14 92 -28 107 -31 l26 -6 -16 -51 c-13 -40 -23 -55 -46 -64 -39
-17 -51 -13 -263 94 -155 77 -184 95 -189 117 -15 60 14 333 57 532 24 111
122 419 141 444 16 21 228 98 269 98 28 0 69 -30 69 -50 0 -5 -19 -14 -42 -20
-44 -11 -108 -32 -142 -46 -15 -6 -17 -4 -11 7 5 8 5 11 -1 6 -5 -5 -9 -14 -9
-20 0 -7 -6 -12 -14 -12 -24 0 -23 -20 3 -57 13 -20 22 -39 19 -42 -7 -6 71
16 136 39 81 28 207 46 331 46 164 0 241 -12 444 -70 38 -11 66 -18 62 -14 -8
8 14 34 24 28 5 -3 12 0 16 6 5 8 3 9 -6 4 -10 -6 -12 -4 -6 11 13 32 12 49
-4 49 -8 0 -15 5 -15 12 0 6 -4 15 -9 20 -6 5 -6 2 -1 -6 6 -11 4 -13 -7 -8
-45 17 -153 47 -169 47 -28 0 -24 35 7 59 15 12 33 21 40 21 8 0 71 -21 140
-46z"/>
<path d="M1615 1701 c22 -10 49 -29 60 -42 17 -20 16 -20 -13 4 -36 29 -50 33
-124 40 -41 4 -51 1 -80 -25 -18 -16 -27 -26 -19 -22 9 4 12 2 9 -7 -3 -8 -10
-14 -16 -14 -5 0 -14 -4 -19 -9 -5 -5 -3 -6 5 -2 16 9 15 6 -4 -40 -16 -38
-15 -100 1 -149 6 -17 5 -18 -5 -5 -10 13 -11 13 -7 0 2 -8 10 -15 17 -15 7 0
15 -6 18 -14 3 -9 0 -11 -9 -6 -8 5 -1 -6 15 -23 30 -33 43 -41 30 -21 -4 7
-1 10 7 7 8 -3 13 -9 12 -14 -2 -11 50 -15 94 -8 99 15 162 155 118 260 -8 20
-13 39 -10 44 9 15 -77 80 -107 80 -7 0 5 -9 27 -19z"/>
<path d="M998 1701 c-66 -7 -103 -31 -136 -87 -19 -33 -22 -51 -20 -116 2 -43
7 -74 12 -70 5 3 7 -1 4 -9 -3 -9 3 -26 14 -40 l20 -24 -18 30 c-17 29 -17 29
24 -7 52 -47 99 -57 153 -32 22 10 52 31 66 48 15 19 20 23 14 9 -6 -12 -26
-33 -43 -48 -18 -15 -24 -22 -13 -17 34 17 67 59 70 89 2 15 6 44 10 63 11 57
-11 119 -60 167 -38 39 -50 61 -15 31 12 -11 12 -10 1 5 -7 9 -16 16 -20 16
-3 -1 -32 -5 -63 -8z"/>
</g>
</svg>
